<?xml version="1.0" standalone="no"?><!DOCTYPE svg PUBLIC "-//W3C//DTD SVG 1.1//EN" "http://www.w3.org/Graphics/SVG/1.1/DTD/svg11.dtd"><svg t="1531218983647" class="icon" style="" viewBox="0 0 1024 1024" version="1.1" xmlns="http://www.w3.org/2000/svg" p-id="1723" xmlns:xlink="http://www.w3.org/1999/xlink" width="64" height="64"><defs><style type="text/css"></style></defs><path d="M908.2 76.6H122c-30.5 0-55.3 24.8-55.3 55.3v567.2c0 30.5 24.8 55.3 55.3 55.3h352.3v101.4H131.6c-19.3 0-35 15.7-35 35s15.7 35 35 35h755.3c19.3 0 35-15.7 35-35s-15.7-35-35-35H544.3V754.5h363.9c30.5 0 55.3-24.8 55.3-55.3V131.9c0-30.5-24.8-55.3-55.3-55.3z m-14.7 607.9H136.6V146.6h756.8v537.9z" p-id="9952"></path><path d="M311.6 357.6h163.8c19.3 0 35-15.7 35-35s-15.7-35-35-35H311.6c-19.3 0-35 15.7-35 35s15.7 35 35 35zM311.6 539.3h433.2c19.3 0 35-15.7 35-35s-15.7-35-35-35H311.6c-19.3 0-35 15.7-35 35 0 19.4 15.7 35 35 35z" p-id="9953"></path></svg>