<?xml version="1.0" standalone="no"?><!DOCTYPE svg PUBLIC "-//W3C//DTD SVG 1.1//EN" "http://www.w3.org/Graphics/SVG/1.1/DTD/svg11.dtd"><svg t="1627920926295" class="icon" style="width: 1em;height: 1em;vertical-align: middle;fill: currentColor;overflow: hidden;" viewBox="0 0 1024 1024" version="1.1" xmlns="http://www.w3.org/2000/svg" p-id="3207"><path d="M223.232 608.938667c1.408-1.365333 2.858667-2.645333 4.394667-3.84l116.309333-116.266667a42.666667 42.666667 0 1 1 60.330667 60.330667L356.096 597.333333l196.096 0.042667a42.666667 42.666667 0 0 1 42.368 37.674667l0.298667 4.992a42.666667 42.666667 0 0 1-42.666667 42.666666H357.248l47.018667 46.933334a42.666667 42.666667 0 1 1-60.330667 60.373333l-115.626667-115.541333a42.837333 42.837333 0 0 1-13.781333-17.066667l-0.512-1.28a34.048 34.048 0 0 1-1.92-5.717333l-0.213333-1.024a39.253333 39.253333 0 0 1-1.066667-7.125334v-5.632a42.496 42.496 0 0 1 12.416-27.648zM800.768 352.938667a43.050667 43.050667 0 0 0-4.394667-3.84l-116.309333-116.266667a42.666667 42.666667 0 1 0-60.330667 60.330667L667.904 341.333333 471.808 341.333333a42.666667 42.666667 0 0 0-42.368 37.674667L429.141333 384a42.666667 42.666667 0 0 0 42.666667 42.666667h194.944l-47.018667 46.933333a42.666667 42.666667 0 1 0 60.330667 60.373333l115.626667-115.541333c5.973333-4.352 10.752-10.24 13.781333-17.066667l0.512-1.28a34.048 34.048 0 0 0 1.92-5.717333l0.213333-1.024a39.253333 39.253333 0 0 0 1.066667-7.125333V380.586667a42.496 42.496 0 0 0-12.416-27.648z" p-id="3208"></path><path d="M512 0C229.248 0 0 229.248 0 512s229.248 512 512 512 512-229.248 512-512S794.752 0 512 0z m0 85.333333c235.648 0 426.666667 191.018667 426.666667 426.666667s-191.018667 426.666667-426.666667 426.666667S85.333333 747.648 85.333333 512 276.352 85.333333 512 85.333333z" p-id="3209"></path></svg>