<?xml version="1.0" standalone="no"?><!DOCTYPE svg PUBLIC "-//W3C//DTD SVG 1.1//EN" "http://www.w3.org/Graphics/SVG/1.1/DTD/svg11.dtd"><svg  class="icon" viewBox="0 0 1024 1024" version="1.1" xmlns="http://www.w3.org/2000/svg" p-id="4013" width="200" height="200"><path d="M256 960m0-32l0 0q0-32 32-32l448 0q32 0 32 32l0 0q0 32-32 32l-448 0q-32 0-32-32Z"  p-id="4014"></path><path d="M256 832m0-32l0 0q0-32 32-32l448 0q32 0 32 32l0 0q0 32-32 32l-448 0q-32 0-32-32Z"  p-id="4015"></path><path d="M512 128a13.43 13.43 0 0 1 8.33 2.87l370.32 289.28c1.88 1.47 7.61 5.94 4.46 15.07s-10.41 9.13-12.8 9.13H768a64 64 0 0 0-64 64V608a32 32 0 0 1-32 32H352a32 32 0 0 1-32-32v-99.66a64 64 0 0 0-64-64H141.69c-2.39 0-9.65 0-12.79-9.13s2.58-13.6 4.46-15.07l370.3-289.27A13.42 13.42 0 0 1 512 128m0-64a77.41 77.41 0 0 0-47.73 16.43L94 369.71c-58.11 45.39-26 138.63 47.73 138.63H256V608a96 96 0 0 0 96 96h320a96 96 0 0 0 96-96v-99.66h114.31c73.74 0 105.84-93.24 47.73-138.63L559.73 80.43A77.42 77.42 0 0 0 512 64z" p-id="4016"></path></svg>