<svg  xmlns="http://www.w3.org/2000/svg" xmlns:xlink="http://www.w3.org/1999/xlink" width="442px" height="369px"><defs><linearGradient id="PSgrad_0" x1="0%" x2="0%" y1="100%" y2="0%">  <stop offset="0%" stop-color="rgb(13,116,255)" stop-opacity="1" />  <stop offset="100%" stop-color="rgb(0,220,254)" stop-opacity="1" /></linearGradient><linearGradient id="PSgrad_1" x1="0%" x2="0%" y1="100%" y2="0%">  <stop offset="0%" stop-color="rgb(4,27,104)" stop-opacity="0.50196" />  <stop offset="100%" stop-color="rgb(5,25,92)" stop-opacity="0.50196" /></linearGradient></defs><path fill-rule="evenodd"  fill="url(#PSgrad_0)" d="M1.0,364.999 L26.999,364.999 L26.999,368.0 L1.0,368.0 L1.0,364.999 Z"/><path fill-rule="evenodd"  stroke-width="2px" stroke-linecap="butt" stroke-linejoin="miter" fill-opacity="0.6" fill="url(#PSgrad_1)" d="M0.999,365.0 L0.999,1.0 L439.999,1.0 L439.999,365.0 L0.999,365.0 Z"/><path fill-rule="evenodd"  fill="rgb(12, 15, 37)" d="M426.0,360.999 L439.999,346.999 "/><path fill-rule="evenodd"  stroke-width="2px" stroke-linecap="butt" stroke-linejoin="miter" fill="none" d="M439.0,39.999 L439.0,31.0 L429.999,31.0 L406.999,7.0 "/><path fill-rule="evenodd"  opacity="0.502" fill="rgb(13, 116, 255)" d="M434.999,27.0 L434.999,5.999 L413.999,5.999 L434.999,27.0 Z"/><path fill-rule="evenodd"  fill="rgb(11, 76, 177)" d="M403.999,1.0 C405.104,1.0 405.999,1.895 405.999,3.0 C405.999,4.104 405.104,5.0 403.999,5.0 C402.895,5.0 401.999,4.104 401.999,3.0 C401.999,1.895 402.895,1.0 403.999,1.0 Z"/><path fill-rule="evenodd"  fill="url(#PSgrad_0)" d="M26.999,0.0 L52.0,0.0 L52.0,2.999 L26.999,2.999 L26.999,0.0 Z"/></svg>