<?xml version="1.0" encoding="UTF-8"?>
<svg width="375px" height="213px" viewBox="0 0 375 213" version="1.1" xmlns="http://www.w3.org/2000/svg" xmlns:xlink="http://www.w3.org/1999/xlink">
    <!-- Generator: Sketch 63 (92445) - https://sketch.com -->
    <title>边框 2</title>
    <desc>Created with Sketch.</desc>
    <defs>
        <linearGradient x1="0%" y1="50%" x2="99.2801522%" y2="50%" id="linearGradient-1">
            <stop stop-color="#38F1FF" offset="0%"></stop>
            <stop stop-color="#38F1FF" offset="100%"></stop>
            <stop stop-color="#1ADEFF" offset="100%"></stop>
        </linearGradient>
        <linearGradient x1="0%" y1="50.0003944%" x2="99.2900127%" y2="49.9996112%" id="linearGradient-2">
            <stop stop-color="#38F1FF" stop-opacity="0" offset="0%"></stop>
            <stop stop-color="#0DE4FF" offset="53.840266%"></stop>
            <stop stop-color="#1ADEFF" stop-opacity="0" offset="100%"></stop>
        </linearGradient>
        <filter x="-0.8%" y="-350.0%" width="101.7%" height="800.0%" filterUnits="objectBoundingBox" id="filter-3">
            <feGaussianBlur stdDeviation="1" in="SourceGraphic"></feGaussianBlur>
        </filter>
    </defs>
    <g id="页面-1" stroke="none" stroke-width="1" fill="none" fill-rule="evenodd">
        <g id="新疆高速公路视频云联网平台" transform="translate(-23.000000, -350.000000)">
            <g id="边框" transform="translate(23.513070, 338.000000)">
                <g id="交通突发事件-3">
                    <g id="边框-2" transform="translate(0.000000, 12.303901)">
                        <g id="边框" transform="translate(0.000000, 2.000000)">
                            <polygon id="矩形" stroke="#298E9F" fill-opacity="0.1" fill="#013C82" points="0.486929789 10 372.48693 10 372.48693 193.197206 372.48693 201.015509 364.556376 209 356.448843 209 16.5869684 209 8.51776547 209 0.486929789 201.015315 0.486929789 192.899582"></polygon>
                            <polygon id="矩形" fill="#1ADEFF" points="0 10 167 10 158.435897 18 0 18"></polygon>
                            <line x1="171.957064" y1="10.25" x2="372.534529" y2="9.75" id="路径-16" stroke="#1ADEFF" stroke-width="2"></line>
                            <line x1="171.957064" y1="14.25" x2="372.534529" y2="13.75" id="路径-16" stroke="#1ADEFF" stroke-dasharray="0,2"></line>
                            <line x1="172.408616" y1="3" x2="329.408616" y2="3" id="路径-17" stroke="url(#linearGradient-1)" stroke-width="6" stroke-dasharray="2,2"></line>
                            <rect id="矩形" fill="#FFB100" transform="translate(359.486930, 3.000000) rotate(-315.000000) translate(-359.486930, -3.000000) " x="357.48693" y="1" width="4" height="4"></rect>
                            <rect id="矩形" fill="#0DFF9D" transform="translate(369.486930, 3.000000) rotate(-315.000000) translate(-369.486930, -3.000000) " x="367.48693" y="1" width="4" height="4"></rect>
                            <line x1="0.486929789" y1="201.015315" x2="8.51776547" y2="209" id="路径-18" stroke="#1ADEFF" stroke-width="2"></line>
                            <line x1="364.556376" y1="209" x2="372.48693" y2="201.015509" id="路径-19" stroke="#1ADEFF" stroke-width="2"></line>
                            <line x1="8.51776547" y1="209" x2="364.556376" y2="209" id="路径-3" stroke="url(#linearGradient-2)" stroke-width="2" filter="url(#filter-3)"></line>
                        </g>
                    </g>
                </g>
            </g>
        </g>
    </g>
</svg>