<svg  xmlns="http://www.w3.org/2000/svg" xmlns:xlink="http://www.w3.org/1999/xlink" width="2288.5px" height="1436.5px"><defs><linearGradient id="PSgrad_0" x1="0%" x2="0%" y1="100%" y2="0%">  <stop offset="0%" stop-color="rgb(0,32,106)" stop-opacity="0.74902" />  <stop offset="100%" stop-color="rgb(0,32,106)" stop-opacity="0.74902" /></linearGradient><linearGradient id="PSgrad_1" x1="0%" x2="0%" y1="100%" y2="0%">  <stop offset="0%" stop-color="rgb(41,91,181)" stop-opacity="0.25098" />  <stop offset="100%" stop-color="rgb(41,91,181)" stop-opacity="0.25098" /></linearGradient><filter id="Filter_0">                <feFlood flood-color="rgb(41, 91, 181)" flood-opacity="1" result="floodOut" />                <feComposite operator="atop" in="floodOut" in2="SourceGraphic" result="compOut" />                <feBlend mode="normal" in="compOut" in2="SourceGraphic" />            </filter></defs><path fill-rule="evenodd"  fill="url(#PSgrad_0)" d="M111.000,133.990 L489.000,133.990 L489.000,604.990 L111.000,604.990 L111.000,133.990 Z"/><rect  x="0px" y="0px" width="2288px" height="1436px" /><path fill-rule="evenodd"  stroke="rgb(41, 91, 181)" stroke-width="1px" stroke-linecap="butt" stroke-linejoin="miter" fill="none" d="M404.838,133.990 C476.121,133.990 489.000,133.990 489.000,133.990 L489.000,604.990 L111.000,604.990 L111.000,133.990 C111.000,133.990 259.430,134.000 352.000,134.000 "/><path fill-rule="evenodd"  fill="rgb(14, 255, 246)" d="M387.000,133.000 L390.000,133.000 L390.000,136.000 L387.000,136.000 L387.000,133.000 Z"/><path fill-rule="evenodd"  fill="rgb(255, 255, 255)" d="M111.000,158.000 L114.000,160.000 L114.000,175.000 L111.000,177.000 L111.000,158.000 Z"/><path fill-rule="evenodd"  fill="rgb(14, 255, 246)" d="M395.000,133.000 L398.000,133.000 L398.000,136.000 L395.000,136.000 L395.000,133.000 Z"/><path fill-rule="evenodd"  fill="rgb(14, 255, 246)" d="M379.000,133.000 L382.000,133.000 L382.000,136.000 L379.000,136.000 L379.000,133.000 Z"/><path fill-rule="evenodd"  fill="rgb(41, 91, 181)" d="M371.000,133.000 L374.000,133.000 L374.000,136.000 L371.000,136.000 L371.000,133.000 Z"/><g filter="url(#Filter_0)"><path fill-rule="evenodd"  stroke="rgb(17, 168, 254)" stroke-width="1px" stroke-linecap="butt" stroke-linejoin="miter" fill="none" d="M373.000,133.000 L377.000,129.000 L485.000,129.000 L489.000,135.000 "/></g><path fill="none" stroke="rgb(17, 168, 254)" stroke-width="1px" stroke-linecap="butt" stroke-linejoin="miter" d="M373.000,133.000 L377.000,129.000 L485.000,129.000 L489.000,135.000 "/><path fill-rule="evenodd"  fill="rgb(41, 91, 181)" d="M114.000,131.000 L174.000,131.000 L177.000,135.000 L111.000,135.000 L114.000,131.000 Z"/></svg>