<svg  xmlns="http://www.w3.org/2000/svg" xmlns:xlink="http://www.w3.org/1999/xlink" width="442px" height="263px"><defs><linearGradient id="PSgrad_0" x1="0%" x2="0%" y1="100%" y2="0%">  <stop offset="0%" stop-color="rgb(13,116,255)" stop-opacity="1" />  <stop offset="100%" stop-color="rgb(0,220,254)" stop-opacity="1" /></linearGradient><linearGradient id="PSgrad_1" x1="0%" x2="0%" y1="100%" y2="0%">  <stop offset="0%" stop-color="rgb(4,27,104)" stop-opacity="0.50196" />  <stop offset="100%" stop-color="rgb(5,25,92)" stop-opacity="0.50196" /></linearGradient></defs><path fill-rule="evenodd"  fill="url(#PSgrad_0)" d="M440.0,2.999 L413.999,2.999 L413.999,0.0 L440.0,0.0 L440.0,2.999 Z"/><path fill-rule="evenodd"  stroke-width="2px" stroke-linecap="butt" stroke-linejoin="miter" fill-opacity="0.6" fill="url(#PSgrad_1)" d="M440.0,2.999 L440.0,260.873 L0.999,260.873 L0.999,2.999 L440.0,2.999 Z"/><path fill-rule="evenodd"  fill="rgb(12, 15, 37)" d="M14.999,7.0 L1.0,21.0 "/><path fill-rule="evenodd"  stroke-width="2px" stroke-linecap="butt" stroke-linejoin="miter" fill="none" d="M1.999,221.873 L1.999,230.873 L11.0,230.873 L33.999,254.873 "/><path fill-rule="evenodd"  opacity="0.502" fill="rgb(13, 116, 255)" d="M6.0,234.873 L6.0,255.873 L26.999,255.873 L6.0,234.873 Z"/><path fill-rule="evenodd"  fill="rgb(11, 76, 177)" d="M37.0,260.873 C35.895,260.873 35.0,259.978 35.0,258.873 C35.0,257.769 35.895,256.873 37.0,256.873 C38.104,256.873 38.999,257.769 38.999,258.873 C38.999,259.978 38.104,260.873 37.0,260.873 Z"/><path fill-rule="evenodd"  fill="url(#PSgrad_0)" d="M413.999,261.873 L389.0,261.873 L389.0,258.873 L413.999,258.873 L413.999,261.873 Z"/></svg>