<svg  xmlns="http://www.w3.org/2000/svg" xmlns:xlink="http://www.w3.org/1999/xlink" width="470.5px" height="226.5px"><defs><filter id="Filter_0">                <feOffset in="SourceAlpha" dx="0" dy="0" />                <feGaussianBlur result="blurOut" stdDeviation="3.162" />                <feFlood flood-color="rgb(59, 182, 236)" result="floodOut" />                <feComposite operator="out" in="floodOut" in2="blurOut" result="compOut" />                <feComposite operator="in" in="compOut" in2="SourceAlpha" />                <feComponentTransfer><feFuncA type="linear" slope="0.7"/></feComponentTransfer>                <feBlend mode="normal" in2="SourceGraphic" />            </filter><linearGradient id="PSgrad_0" x1="100%" x2="0%" y1="0%" y2="0%">  <stop offset="0%" stop-color="rgb(1,94,234)" stop-opacity="0.2" />  <stop offset="100%" stop-color="rgb(0,192,250)" stop-opacity="0.6" /></linearGradient></defs><g filter="url(#Filter_0)"><path fill-rule="evenodd"  opacity="0.149" fill="rgb(1, 49, 129)" d="M5.0,6.0 L464.999,6.0 L464.999,220.999 L5.0,220.999 L5.0,6.0 Z"/></g><path fill-rule="evenodd"  stroke-width="1px" stroke-linecap="butt" stroke-linejoin="miter" opacity="0.302" fill="url(#PSgrad_0)" d="M5.995,7.0 L463.995,7.0 L463.995,40.999 L5.995,40.999 L5.995,7.0 Z"/><path fill-rule="evenodd"  fill="rgb(255, 153, 77)" d="M5.999,16.999 L9.0,16.999 L9.0,31.0 L5.999,31.0 L5.999,16.999 Z"/><path fill-rule="evenodd"  opacity="0.6" fill="rgb(59, 182, 236)" d="M441.873,17.999 L445.338,17.999 L445.338,31.858 L441.873,31.858 L441.873,17.999 Z"/><path fill-rule="evenodd"  opacity="0.2" fill="rgb(59, 182, 236)" d="M433.211,17.999 L436.676,17.999 L436.676,31.858 L433.211,31.858 L433.211,17.999 Z"/><path fill-rule="evenodd"  fill="rgb(59, 182, 236)" d="M450.535,17.999 L453.999,17.999 L453.999,31.858 L450.535,31.858 L450.535,17.999 Z"/></svg>