<svg  xmlns="http://www.w3.org/2000/svg" xmlns:xlink="http://www.w3.org/1999/xlink" width="758px" height="400px"><path fill-rule="evenodd"  stroke-width="1px" stroke="rgb(1, 143, 253)" fill-opacity="0.702" opacity="0.702" fill="rgb(0, 28, 88)" d="M733.500,393.500 L700.500,393.500 L695.500,387.500 L464.500,387.500 L459.500,393.500 L20.500,393.500 L6.500,379.500 L6.500,22.500 L23.500,5.500 L54.500,5.500 L60.500,11.500 L118.500,11.500 L124.500,5.500 L736.500,5.500 L750.500,19.500 L750.500,376.500 L733.500,393.500 Z"/><path fill-rule="evenodd"  fill="rgb(32, 219, 238)" d="M745.500,11.500 L739.500,5.500 L750.500,5.500 L750.500,16.500 L745.500,11.500 ZM678.500,389.518 L693.500,389.518 L697.500,393.518 L674.500,393.518 L678.500,389.518 ZM653.500,393.518 L657.500,389.518 L674.500,389.518 L670.500,393.518 L653.500,393.518 ZM632.500,393.518 L636.500,389.518 L653.500,389.518 L649.500,393.518 L632.500,393.518 ZM611.500,393.518 L615.500,389.518 L632.500,389.518 L628.500,393.518 L611.500,393.518 ZM590.500,393.518 L594.500,389.518 L611.500,389.518 L607.500,393.518 L590.500,393.518 ZM62.500,9.500 L58.500,5.500 L120.500,5.500 L116.500,9.500 L62.500,9.500 ZM6.500,382.518 L11.500,387.518 L17.500,393.518 L6.500,393.518 L6.500,382.518 Z"/><path fill-rule="evenodd"  stroke="rgb(32, 219, 238)" stroke-width="2px" stroke-linecap="butt" stroke-linejoin="miter" fill="none" d="M34.500,7.500 L22.500,7.500 L8.500,21.500 L8.500,33.500 "/><path fill-rule="evenodd"  stroke="rgb(32, 219, 238)" stroke-width="2px" stroke-linecap="butt" stroke-linejoin="miter" fill="none" d="M722.500,392.500 L734.500,392.500 L748.500,378.500 L748.500,366.500 "/><path fill-rule="evenodd"  stroke-width="1px" stroke="rgb(32, 219, 238)" fill-opacity="0.6" opacity="0.6" fill="rgb(32, 219, 238)" d="M67.500,28.500 L73.500,28.500 L63.500,46.500 L57.500,46.500 L67.500,28.500 Z"/><path fill-rule="evenodd"  stroke-width="1px" stroke="rgb(32, 219, 238)" fill-opacity="0.8" opacity="0.8" fill="rgb(32, 219, 238)" d="M52.500,28.500 L58.500,28.500 L48.499,46.500 L42.500,46.500 L52.500,28.500 Z"/><path fill-rule="evenodd"  stroke-width="1px" stroke="rgb(32, 219, 238)" fill="rgb(32, 219, 238)" d="M37.500,28.500 L43.500,28.500 L33.500,46.500 L27.500,46.500 L37.500,28.500 Z"/><path fill-rule="evenodd"  fill="rgb(51, 172, 255)" d="M692.000,30.532 L697.500,36.039 L692.000,41.545 L686.499,36.039 L692.000,30.532 Z"/><path fill-rule="evenodd"  fill="rgb(13, 196, 237)" d="M707.999,30.532 L713.500,36.039 L707.999,41.545 L702.499,36.039 L707.999,30.532 Z"/><path fill-rule="evenodd"  fill="rgb(186, 174, 96)" d="M724.000,30.532 L729.500,36.039 L724.000,41.545 L718.499,36.039 L724.000,30.532 Z"/><path fill-rule="evenodd"  fill="rgb(28, 123, 226)" d="M724.500,66.500 L724.500,64.500 L32.500,64.500 L32.500,66.500 L27.500,66.500 L27.500,64.500 L27.500,63.500 L27.500,61.500 L32.500,61.500 L32.500,63.500 L724.500,63.500 L724.500,61.500 L729.500,61.500 L729.500,63.500 L729.500,64.500 L729.500,66.500 L724.500,66.500 Z"/></svg>