<svg  xmlns="http://www.w3.org/2000/svg" xmlns:xlink="http://www.w3.org/1999/xlink" width="1861px" height="106px"><defs><linearGradient id="PSgrad_0" x1="0%" x2="100%" y1="0%" y2="0%">  <stop offset="0%" stop-color="rgb(1,33,122)" stop-opacity="1" />  <stop offset="100%" stop-color="rgb(1,33,122)" stop-opacity="1" /></linearGradient><linearGradient id="PSgrad_1" x1="100%" x2="0%" y1="0%" y2="0%">  <stop offset="0%" stop-color="rgb(1,33,122)" stop-opacity="1" />  <stop offset="68%" stop-color="rgb(13,116,255)" stop-opacity="0.39" />  <stop offset="100%" stop-color="rgb(13,116,255)" stop-opacity="1" /></linearGradient><linearGradient id="PSgrad_2" x1="0%" x2="0%" y1="100%" y2="0%">  <stop offset="0%" stop-color="rgb(12,24,83)" stop-opacity="1" />  <stop offset="100%" stop-color="rgb(12,24,83)" stop-opacity="0.50196" /></linearGradient><filter id="Filter_0">                <feOffset in="SourceAlpha" dx="0" dy="0" />                <feGaussianBlur result="blurOut" stdDeviation="2.449" />                <feFlood flood-color="rgb(44, 114, 255)" result="floodOut" />                <feComposite operator="out" in="floodOut" in2="blurOut" result="compOut" />                <feComposite operator="in" in="compOut" in2="SourceAlpha" />                <feComponentTransfer><feFuncA type="linear" slope="0.47"/></feComponentTransfer>                <feBlend mode="normal" in2="SourceGraphic" />            </filter><filter id="Filter_1">                <feOffset in="SourceAlpha" dx="0" dy="0" />                <feGaussianBlur result="blurOut" stdDeviation="2.449" />                <feFlood flood-color="rgb(44, 114, 255)" result="floodOut" />                <feComposite operator="out" in="floodOut" in2="blurOut" result="compOut" />                <feComposite operator="in" in="compOut" in2="SourceAlpha" />                <feComponentTransfer><feFuncA type="linear" slope="0.47"/></feComponentTransfer>                <feBlend mode="normal" in2="SourceGraphic" />            </filter><linearGradient id="PSgrad_3" x1="0%" x2="0%" y1="0%" y2="100%">  <stop offset="1%" stop-color="rgb(9,168,227)" stop-opacity="1" />  <stop offset="50%" stop-color="rgb(9,168,227)" stop-opacity="1" />  <stop offset="100%" stop-color="rgb(0,103,237)" stop-opacity="1" /></linearGradient></defs><path fill-rule="evenodd"  opacity="0.2" fill="url(#PSgrad_0)" d="M7.0,81.386 L15.0,89.500 L407.999,89.500 L351.999,30.500 L15.999,30.500 L7.0,39.932 L7.0,81.386 Z"/><path fill-rule="evenodd"  opacity="0.2" fill="url(#PSgrad_1)" d="M1852.999,81.386 L1844.999,89.500 L1452.0,89.500 L1507.999,30.500 L1844.0,30.500 L1852.999,39.932 L1852.999,81.386 Z"/><path fill-rule="evenodd"  stroke="rgb(19, 117, 217)" stroke-width="1px" stroke-linecap="butt" stroke-linejoin="miter" fill="url(#PSgrad_2)" d="M506.999,6.499 L1348.999,7.500 L1256.999,99.499 L599.999,99.499 L506.999,6.499 Z"/><g filter="url(#Filter_0)"><path fill-rule="evenodd"  fill-opacity="0" fill="rgb(12, 24, 83)" d="M1331.886,17.499 L1318.295,17.499 L1329.999,7.500 L1342.0,7.500 L1331.886,17.499 ZM1304.579,44.500 L1286.693,44.500 L1299.568,33.500 L1315.704,33.500 L1304.579,44.500 ZM1290.420,58.499 L1270.306,58.499 L1283.181,47.500 L1301.545,47.500 L1290.420,58.499 ZM1277.272,71.499 L1255.91,71.499 L1266.795,61.499 L1287.386,61.499 L1277.272,71.499 ZM1263.113,85.499 L1238.704,85.499 L1251.579,74.499 L1274.238,74.499 L1263.113,85.499 ZM1252.999,95.500 L1227.0,95.500 L1235.193,88.500 L1260.79,88.500 L1252.999,95.500 ZM1314.784,20.500 L1328.852,20.500 L1318.738,30.499 L1303.79,30.499 L1314.784,20.500 Z"/></g><g filter="url(#Filter_1)"><path fill-rule="evenodd"  fill-opacity="0" fill="rgb(12, 24, 83)" d="M603.0,95.500 L595.920,88.500 L620.806,88.500 L629.0,95.500 L603.0,95.500 ZM581.761,74.499 L604.420,74.499 L617.295,85.499 L592.886,85.499 L581.761,74.499 ZM568.613,61.499 L589.204,61.499 L600.909,71.499 L578.727,71.499 L568.613,61.499 ZM554.454,47.500 L572.818,47.500 L585.693,58.499 L565.579,58.499 L554.454,47.500 ZM540.295,33.500 L556.431,33.500 L569.306,44.500 L551.420,44.500 L540.295,33.500 ZM524.113,17.499 L514.0,7.500 L525.999,7.500 L537.704,17.499 L524.113,17.499 ZM527.147,20.500 L541.215,20.500 L552.920,30.499 L537.261,30.499 L527.147,20.500 Z"/></g><path fill-rule="evenodd"  stroke-width="2px" stroke-linecap="butt" stroke-linejoin="miter" fill="none" d="M1330.999,93.499 L1422.0,93.499 L1482.999,32.499 "/><path fill-rule="evenodd"  stroke="rgb(0, 220, 254)" stroke-width="2px" stroke-linecap="butt" stroke-linejoin="miter" fill="none" d="M1328.0,88.499 C1330.761,88.499 1332.999,90.738 1332.999,93.499 C1332.999,96.261 1330.761,98.499 1328.0,98.499 C1325.238,98.499 1323.0,96.261 1323.0,93.499 C1323.0,90.738 1325.238,88.499 1328.0,88.499 Z"/><path fill-rule="evenodd"  stroke="rgb(19, 117, 217)" stroke-width="2px" stroke-linecap="butt" stroke-linejoin="miter" fill="none" d="M1483.999,24.500 C1486.761,24.500 1488.999,26.738 1488.999,29.500 C1488.999,32.261 1486.761,34.500 1483.999,34.500 C1481.238,34.500 1478.999,32.261 1478.999,29.500 C1478.999,26.738 1481.238,24.500 1483.999,24.500 Z"/><path fill-rule="evenodd"  stroke-width="2px" stroke-linecap="butt" stroke-linejoin="miter" fill="none" d="M1439.0,92.500 L1505.0,25.499 L1616.0,25.499 "/><path fill-rule="evenodd"  fill="rgb(0, 112, 249)" d="M1799.999,94.500 C1801.104,94.500 1801.999,95.395 1801.999,96.499 C1801.999,97.604 1801.104,98.499 1799.999,98.499 C1798.895,98.499 1798.0,97.604 1798.0,96.499 C1798.0,95.395 1798.895,94.500 1799.999,94.500 Z"/><path fill-rule="evenodd"  fill="rgb(0, 112, 249)" d="M1814.0,94.500 C1815.104,94.500 1815.999,95.395 1815.999,96.499 C1815.999,97.604 1815.104,98.499 1814.0,98.499 C1812.895,98.499 1812.0,97.604 1812.0,96.499 C1812.0,95.395 1812.895,94.500 1814.0,94.500 Z"/><path fill-rule="evenodd"  fill="rgb(19, 117, 217)" d="M1849.999,97.500 L1827.999,97.500 L1827.999,95.500 L1849.0,95.500 L1858.0,86.500 L1858.0,38.500 L1851.999,33.499 L1851.999,22.499 L1860.0,28.500 L1860.0,86.500 L1849.999,97.500 ZM1858.0,29.500 L1853.999,26.499 L1853.999,32.499 L1858.0,35.500 L1858.0,29.500 Z"/><path fill="url(#PSgrad_3)" d="M1849.999,97.500 L1827.999,97.500 L1827.999,95.500 L1849.0,95.500 L1858.0,86.500 L1858.0,38.500 L1851.999,33.499 L1851.999,22.499 L1860.0,28.500 L1860.0,86.500 L1849.999,97.500 ZM1858.0,29.500 L1853.999,26.499 L1853.999,32.499 L1858.0,35.500 L1858.0,29.500 Z"/><path fill-rule="evenodd"  fill="rgb(0, 112, 249)" d="M1852.999,97.500 L1859.999,90.499 L1859.999,97.500 L1852.999,97.500 Z"/><path fill-rule="evenodd"  fill="rgb(0, 112, 249)" d="M1826.999,93.499 C1828.656,93.499 1830.0,94.843 1830.0,96.499 C1830.0,98.156 1828.656,99.499 1826.999,99.499 C1825.343,99.499 1823.999,98.156 1823.999,96.499 C1823.999,94.843 1825.343,93.499 1826.999,93.499 Z"/><path fill-rule="evenodd"  stroke-width="1px" stroke-linecap="butt" stroke-linejoin="miter" opacity="0.502" fill="none" d="M1418.0,87.499 L1409.999,87.499 L1463.999,33.499 L1473.0,33.499 L1418.0,87.499 ZM1395.999,87.499 L1449.999,33.499 L1459.0,33.499 L1403.999,87.499 L1395.999,87.499 ZM1381.999,87.499 L1435.999,33.499 L1444.999,33.499 L1389.999,87.499 L1381.999,87.499 ZM1367.999,87.499 L1422.0,33.499 L1431.0,33.499 L1376.0,87.499 L1367.999,87.499 ZM1354.0,87.499 L1408.0,33.499 L1417.0,33.499 L1362.0,87.499 L1354.0,87.499 ZM1340.0,87.499 L1393.999,33.499 L1403.0,33.499 L1347.999,87.499 L1340.0,87.499 Z"/><path fill-rule="evenodd"  fill="rgb(0, 220, 254)" d="M1438.500,90.499 C1439.880,90.499 1440.999,91.619 1440.999,92.999 C1440.999,94.380 1439.880,95.500 1438.500,95.500 C1437.119,95.500 1435.999,94.380 1435.999,92.999 C1435.999,91.619 1437.119,90.499 1438.500,90.499 Z"/><path fill-rule="evenodd"  stroke-width="2px" stroke-linecap="butt" stroke-linejoin="miter" fill="none" d="M529.0,93.499 L437.999,93.499 L376.999,32.499 "/><path fill-rule="evenodd"  stroke="rgb(0, 220, 254)" stroke-width="2px" stroke-linecap="butt" stroke-linejoin="miter" fill="none" d="M532.0,88.499 C534.761,88.499 536.999,90.738 536.999,93.499 C536.999,96.261 534.761,98.499 532.0,98.499 C529.238,98.499 526.999,96.261 526.999,93.499 C526.999,90.738 529.238,88.499 532.0,88.499 Z"/><path fill-rule="evenodd"  stroke="rgb(19, 117, 217)" stroke-width="2px" stroke-linecap="butt" stroke-linejoin="miter" fill="none" d="M376.0,24.500 C378.761,24.500 381.0,26.738 381.0,29.500 C381.0,32.261 378.761,34.500 376.0,34.500 C373.238,34.500 370.999,32.261 370.999,29.500 C370.999,26.738 373.238,24.500 376.0,24.500 Z"/><path fill-rule="evenodd"  stroke-width="2px" stroke-linecap="butt" stroke-linejoin="miter" fill="none" d="M420.999,92.500 L354.999,25.499 L243.999,25.499 "/><path fill-rule="evenodd"  fill="rgb(0, 112, 249)" d="M60.0,94.500 C61.104,94.500 61.999,95.395 61.999,96.499 C61.999,97.604 61.104,98.499 60.0,98.499 C58.895,98.499 58.0,97.604 58.0,96.499 C58.0,95.395 58.895,94.500 60.0,94.500 Z"/><path fill-rule="evenodd"  fill="rgb(0, 112, 249)" d="M45.999,94.500 C47.104,94.500 47.999,95.395 47.999,96.499 C47.999,97.604 47.104,98.499 45.999,98.499 C44.895,98.499 43.999,97.604 43.999,96.499 C43.999,95.395 44.895,94.500 45.999,94.500 Z"/><path fill-rule="evenodd"  fill="rgb(19, 117, 217)" d="M9.999,97.500 L0.0,86.500 L0.0,27.499 L7.999,21.499 L7.999,32.499 L1.999,37.500 L1.999,86.500 L10.999,95.500 L32.0,95.500 L32.0,97.500 L9.999,97.500 ZM5.999,31.500 L5.999,25.499 L1.999,28.500 L1.999,34.500 L5.999,31.500 Z"/><path fill="url(#PSgrad_3)" d="M9.999,97.500 L0.0,86.500 L0.0,27.499 L7.999,21.499 L7.999,32.499 L1.999,37.500 L1.999,86.500 L10.999,95.500 L32.0,95.500 L32.0,97.500 L9.999,97.500 ZM5.999,31.500 L5.999,25.499 L1.999,28.500 L1.999,34.500 L5.999,31.500 Z"/><path fill-rule="evenodd"  fill="rgb(0, 112, 249)" d="M7.0,97.500 L0.0,90.499 L0.0,97.500 L7.0,97.500 Z"/><path fill-rule="evenodd"  fill="rgb(0, 112, 249)" d="M32.999,93.499 C34.656,93.499 36.0,94.843 36.0,96.499 C36.0,98.156 34.656,99.499 32.999,99.499 C31.342,99.499 30.0,98.156 30.0,96.499 C30.0,94.843 31.342,93.499 32.999,93.499 Z"/><path fill-rule="evenodd"  stroke-width="1px" stroke-linecap="butt" stroke-linejoin="miter" opacity="0.502" fill="none" d="M511.999,87.499 L456.999,33.499 L465.999,33.499 L519.999,87.499 L511.999,87.499 ZM497.999,87.499 L442.999,33.499 L451.999,33.499 L505.999,87.499 L497.999,87.499 ZM483.999,87.499 L429.0,33.499 L437.999,33.499 L492.0,87.499 L483.999,87.499 ZM470.0,87.499 L414.999,33.499 L424.0,33.499 L478.0,87.499 L470.0,87.499 ZM456.0,87.499 L400.999,33.499 L410.0,33.499 L463.999,87.499 L456.0,87.499 ZM441.999,87.499 L386.999,33.499 L395.999,33.499 L450.0,87.499 L441.999,87.499 Z"/><path fill-rule="evenodd"  fill="rgb(0, 220, 254)" d="M421.500,90.499 C422.880,90.499 424.0,91.619 424.0,92.999 C424.0,94.380 422.880,95.500 421.500,95.500 C420.119,95.500 419.0,94.380 419.0,92.999 C419.0,91.619 420.119,90.499 421.500,90.499 Z"/></svg>