<svg  xmlns="http://www.w3.org/2000/svg" xmlns:xlink="http://www.w3.org/1999/xlink" width="1921px" height="106px"><defs><linearGradient id="PSgrad_0" x1="0%" x2="0%" y1="100%" y2="0%">  <stop offset="0%" stop-color="rgb(0,29,81)" stop-opacity="0.8" />  <stop offset="56%" stop-color="rgb(0,25,81)" stop-opacity="1" />  <stop offset="56%" stop-color="rgb(0,25,81)" stop-opacity="1" />  <stop offset="100%" stop-color="rgb(0,31,81)" stop-opacity="0.8" /></linearGradient><linearGradient id="PSgrad_1" x1="0%" x2="100%" y1="0%" y2="0%">  <stop offset="0%" stop-color="rgb(1,33,122)" stop-opacity="1" />  <stop offset="100%" stop-color="rgb(1,33,122)" stop-opacity="1" /></linearGradient><linearGradient id="PSgrad_2" x1="100%" x2="0%" y1="0%" y2="0%">  <stop offset="0%" stop-color="rgb(1,33,122)" stop-opacity="1" />  <stop offset="68%" stop-color="rgb(13,116,255)" stop-opacity="0.39" />  <stop offset="100%" stop-color="rgb(13,116,255)" stop-opacity="1" /></linearGradient><linearGradient id="PSgrad_3" x1="0%" x2="0%" y1="100%" y2="0%">  <stop offset="0%" stop-color="rgb(12,24,83)" stop-opacity="1" />  <stop offset="100%" stop-color="rgb(12,24,83)" stop-opacity="0.50196" /></linearGradient><filter id="Filter_0">                <feOffset in="SourceAlpha" dx="0" dy="0" />                <feGaussianBlur result="blurOut" stdDeviation="2.449" />                <feFlood flood-color="rgb(44, 114, 255)" result="floodOut" />                <feComposite operator="out" in="floodOut" in2="blurOut" result="compOut" />                <feComposite operator="in" in="compOut" in2="SourceAlpha" />                <feComponentTransfer><feFuncA type="linear" slope="0.47"/></feComponentTransfer>                <feBlend mode="normal" in2="SourceGraphic" />            </filter><filter id="Filter_1">                <feOffset in="SourceAlpha" dx="0" dy="0" />                <feGaussianBlur result="blurOut" stdDeviation="2.449" />                <feFlood flood-color="rgb(44, 114, 255)" result="floodOut" />                <feComposite operator="out" in="floodOut" in2="blurOut" result="compOut" />                <feComposite operator="in" in="compOut" in2="SourceAlpha" />                <feComponentTransfer><feFuncA type="linear" slope="0.47"/></feComponentTransfer>                <feBlend mode="normal" in2="SourceGraphic" />            </filter><linearGradient id="PSgrad_4" x1="0%" x2="0%" y1="0%" y2="100%">  <stop offset="1%" stop-color="rgb(9,168,227)" stop-opacity="1" />  <stop offset="50%" stop-color="rgb(9,168,227)" stop-opacity="1" />  <stop offset="100%" stop-color="rgb(0,103,237)" stop-opacity="1" /></linearGradient></defs><path fill-rule="evenodd"  fill="url(#PSgrad_0)" d="M0.0,10.499 L1919.999,10.499 L1919.999,99.500 L0.0,99.500 L0.0,10.499 Z"/><path fill-rule="evenodd"  opacity="0.2" fill="url(#PSgrad_1)" d="M37.0,81.386 L45.0,89.500 L437.999,89.500 L381.999,30.500 L45.999,30.500 L37.0,39.932 L37.0,81.386 Z"/><path fill-rule="evenodd"  opacity="0.2" fill="url(#PSgrad_2)" d="M1882.999,81.386 L1874.999,89.500 L1482.0,89.500 L1537.999,30.500 L1874.0,30.500 L1882.999,39.932 L1882.999,81.386 Z"/><path fill-rule="evenodd"  stroke="rgb(19, 117, 217)" stroke-width="1px" stroke-linecap="butt" stroke-linejoin="miter" fill="url(#PSgrad_3)" d="M536.999,6.499 L1378.999,7.500 L1286.999,99.499 L629.999,99.499 L536.999,6.499 Z"/><g filter="url(#Filter_0)"><path fill-rule="evenodd"  fill-opacity="0" fill="rgb(12, 24, 83)" d="M1361.886,17.499 L1348.295,17.499 L1359.999,7.500 L1372.0,7.500 L1361.886,17.499 ZM1334.579,44.500 L1316.693,44.500 L1329.568,33.500 L1345.704,33.500 L1334.579,44.500 ZM1320.420,58.499 L1300.306,58.499 L1313.181,47.500 L1331.545,47.500 L1320.420,58.499 ZM1307.272,71.499 L1285.91,71.499 L1296.795,61.499 L1317.386,61.499 L1307.272,71.499 ZM1293.113,85.499 L1268.704,85.499 L1281.579,74.499 L1304.238,74.499 L1293.113,85.499 ZM1282.999,95.500 L1257.0,95.500 L1265.193,88.500 L1290.79,88.500 L1282.999,95.500 ZM1344.784,20.500 L1358.852,20.500 L1348.738,30.499 L1333.79,30.499 L1344.784,20.500 Z"/></g><g filter="url(#Filter_1)"><path fill-rule="evenodd"  fill-opacity="0" fill="rgb(12, 24, 83)" d="M633.0,95.500 L625.920,88.500 L650.806,88.500 L659.0,95.500 L633.0,95.500 ZM611.761,74.499 L634.420,74.499 L647.295,85.499 L622.886,85.499 L611.761,74.499 ZM598.613,61.499 L619.204,61.499 L630.909,71.499 L608.727,71.499 L598.613,61.499 ZM584.454,47.500 L602.818,47.500 L615.693,58.499 L595.579,58.499 L584.454,47.500 ZM570.295,33.500 L586.431,33.500 L599.306,44.500 L581.420,44.500 L570.295,33.500 ZM554.113,17.499 L544.0,7.500 L555.999,7.500 L567.704,17.499 L554.113,17.499 ZM557.147,20.500 L571.215,20.500 L582.920,30.499 L567.261,30.499 L557.147,20.500 Z"/></g><path fill-rule="evenodd"  stroke-width="2px" stroke-linecap="butt" stroke-linejoin="miter" fill="none" d="M1360.999,93.499 L1452.0,93.499 L1512.999,32.499 "/><path fill-rule="evenodd"  stroke="rgb(0, 220, 254)" stroke-width="2px" stroke-linecap="butt" stroke-linejoin="miter" fill="none" d="M1358.0,88.499 C1360.761,88.499 1362.999,90.738 1362.999,93.499 C1362.999,96.261 1360.761,98.499 1358.0,98.499 C1355.238,98.499 1353.0,96.261 1353.0,93.499 C1353.0,90.738 1355.238,88.499 1358.0,88.499 Z"/><path fill-rule="evenodd"  stroke="rgb(19, 117, 217)" stroke-width="2px" stroke-linecap="butt" stroke-linejoin="miter" fill="none" d="M1513.999,24.500 C1516.761,24.500 1518.999,26.738 1518.999,29.500 C1518.999,32.261 1516.761,34.500 1513.999,34.500 C1511.238,34.500 1508.999,32.261 1508.999,29.500 C1508.999,26.738 1511.238,24.500 1513.999,24.500 Z"/><path fill-rule="evenodd"  stroke-width="2px" stroke-linecap="butt" stroke-linejoin="miter" fill="none" d="M1469.0,92.500 L1535.0,25.499 L1646.0,25.499 "/><path fill-rule="evenodd"  fill="rgb(0, 112, 249)" d="M1829.999,94.500 C1831.104,94.500 1831.999,95.395 1831.999,96.499 C1831.999,97.604 1831.104,98.499 1829.999,98.499 C1828.895,98.499 1828.0,97.604 1828.0,96.499 C1828.0,95.395 1828.895,94.500 1829.999,94.500 Z"/><path fill-rule="evenodd"  fill="rgb(0, 112, 249)" d="M1844.0,94.500 C1845.104,94.500 1845.999,95.395 1845.999,96.499 C1845.999,97.604 1845.104,98.499 1844.0,98.499 C1842.895,98.499 1842.0,97.604 1842.0,96.499 C1842.0,95.395 1842.895,94.500 1844.0,94.500 Z"/><path fill-rule="evenodd"  fill="rgb(19, 117, 217)" d="M1879.999,97.500 L1857.999,97.500 L1857.999,95.500 L1879.0,95.500 L1888.0,86.500 L1888.0,38.500 L1881.999,33.499 L1881.999,22.499 L1890.0,28.500 L1890.0,86.500 L1879.999,97.500 ZM1888.0,29.500 L1883.999,26.499 L1883.999,32.499 L1888.0,35.500 L1888.0,29.500 Z"/><path fill="url(#PSgrad_4)" d="M1879.999,97.500 L1857.999,97.500 L1857.999,95.500 L1879.0,95.500 L1888.0,86.500 L1888.0,38.500 L1881.999,33.499 L1881.999,22.499 L1890.0,28.500 L1890.0,86.500 L1879.999,97.500 ZM1888.0,29.500 L1883.999,26.499 L1883.999,32.499 L1888.0,35.500 L1888.0,29.500 Z"/><path fill-rule="evenodd"  fill="rgb(0, 112, 249)" d="M1882.999,97.500 L1889.999,90.499 L1889.999,97.500 L1882.999,97.500 Z"/><path fill-rule="evenodd"  fill="rgb(0, 112, 249)" d="M1856.999,93.499 C1858.656,93.499 1860.0,94.843 1860.0,96.499 C1860.0,98.156 1858.656,99.499 1856.999,99.499 C1855.343,99.499 1853.999,98.156 1853.999,96.499 C1853.999,94.843 1855.343,93.499 1856.999,93.499 Z"/><path fill-rule="evenodd"  stroke-width="1px" stroke-linecap="butt" stroke-linejoin="miter" opacity="0.502" fill="none" d="M1448.0,87.499 L1439.999,87.499 L1493.999,33.499 L1503.0,33.499 L1448.0,87.499 ZM1425.999,87.499 L1479.999,33.499 L1489.0,33.499 L1433.999,87.499 L1425.999,87.499 ZM1411.999,87.499 L1465.999,33.499 L1474.999,33.499 L1419.999,87.499 L1411.999,87.499 ZM1397.999,87.499 L1452.0,33.499 L1461.0,33.499 L1406.0,87.499 L1397.999,87.499 ZM1384.0,87.499 L1438.0,33.499 L1447.0,33.499 L1392.0,87.499 L1384.0,87.499 ZM1370.0,87.499 L1423.999,33.499 L1433.0,33.499 L1377.999,87.499 L1370.0,87.499 Z"/><path fill-rule="evenodd"  fill="rgb(0, 220, 254)" d="M1468.500,90.499 C1469.880,90.499 1470.999,91.619 1470.999,92.999 C1470.999,94.380 1469.880,95.500 1468.500,95.500 C1467.119,95.500 1465.999,94.380 1465.999,92.999 C1465.999,91.619 1467.119,90.499 1468.500,90.499 Z"/><path fill-rule="evenodd"  stroke-width="2px" stroke-linecap="butt" stroke-linejoin="miter" fill="none" d="M559.0,93.499 L467.999,93.499 L406.999,32.499 "/><path fill-rule="evenodd"  stroke="rgb(0, 220, 254)" stroke-width="2px" stroke-linecap="butt" stroke-linejoin="miter" fill="none" d="M562.0,88.499 C564.761,88.499 566.999,90.738 566.999,93.499 C566.999,96.261 564.761,98.499 562.0,98.499 C559.238,98.499 556.999,96.261 556.999,93.499 C556.999,90.738 559.238,88.499 562.0,88.499 Z"/><path fill-rule="evenodd"  stroke="rgb(19, 117, 217)" stroke-width="2px" stroke-linecap="butt" stroke-linejoin="miter" fill="none" d="M406.0,24.500 C408.761,24.500 411.0,26.738 411.0,29.500 C411.0,32.261 408.761,34.500 406.0,34.500 C403.238,34.500 400.999,32.261 400.999,29.500 C400.999,26.738 403.238,24.500 406.0,24.500 Z"/><path fill-rule="evenodd"  stroke-width="2px" stroke-linecap="butt" stroke-linejoin="miter" fill="none" d="M450.999,92.500 L384.999,25.499 L273.999,25.499 "/><path fill-rule="evenodd"  fill="rgb(0, 112, 249)" d="M90.0,94.500 C91.104,94.500 91.999,95.395 91.999,96.499 C91.999,97.604 91.104,98.499 90.0,98.499 C88.895,98.499 88.0,97.604 88.0,96.499 C88.0,95.395 88.895,94.500 90.0,94.500 Z"/><path fill-rule="evenodd"  fill="rgb(0, 112, 249)" d="M75.999,94.500 C77.104,94.500 77.999,95.395 77.999,96.499 C77.999,97.604 77.104,98.499 75.999,98.499 C74.895,98.499 73.999,97.604 73.999,96.499 C73.999,95.395 74.895,94.500 75.999,94.500 Z"/><path fill-rule="evenodd"  fill="rgb(19, 117, 217)" d="M39.999,97.500 L29.999,86.500 L29.999,27.499 L37.999,21.499 L37.999,32.499 L31.999,37.500 L31.999,86.500 L40.999,95.500 L62.0,95.500 L62.0,97.500 L39.999,97.500 ZM35.999,31.500 L35.999,25.499 L31.999,28.500 L31.999,34.500 L35.999,31.500 Z"/><path fill="url(#PSgrad_4)" d="M39.999,97.500 L29.999,86.500 L29.999,27.499 L37.999,21.499 L37.999,32.499 L31.999,37.500 L31.999,86.500 L40.999,95.500 L62.0,95.500 L62.0,97.500 L39.999,97.500 ZM35.999,31.500 L35.999,25.499 L31.999,28.500 L31.999,34.500 L35.999,31.500 Z"/><path fill-rule="evenodd"  fill="rgb(0, 112, 249)" d="M37.0,97.500 L30.0,90.499 L30.0,97.500 L37.0,97.500 Z"/><path fill-rule="evenodd"  fill="rgb(0, 112, 249)" d="M62.999,93.499 C64.656,93.499 66.0,94.843 66.0,96.499 C66.0,98.156 64.656,99.499 62.999,99.499 C61.342,99.499 60.0,98.156 60.0,96.499 C60.0,94.843 61.342,93.499 62.999,93.499 Z"/><path fill-rule="evenodd"  stroke-width="1px" stroke-linecap="butt" stroke-linejoin="miter" opacity="0.502" fill="none" d="M541.999,87.499 L486.999,33.499 L495.999,33.499 L549.999,87.499 L541.999,87.499 ZM527.999,87.499 L472.999,33.499 L481.999,33.499 L535.999,87.499 L527.999,87.499 ZM513.999,87.499 L459.0,33.499 L467.999,33.499 L522.0,87.499 L513.999,87.499 ZM500.0,87.499 L444.999,33.499 L454.0,33.499 L508.0,87.499 L500.0,87.499 ZM486.0,87.499 L430.999,33.499 L440.0,33.499 L493.999,87.499 L486.0,87.499 ZM471.999,87.499 L416.999,33.499 L425.999,33.499 L480.0,87.499 L471.999,87.499 Z"/><path fill-rule="evenodd"  fill="rgb(0, 220, 254)" d="M451.500,90.499 C452.880,90.499 454.0,91.619 454.0,92.999 C454.0,94.380 452.880,95.500 451.500,95.500 C450.119,95.500 449.0,94.380 449.0,92.999 C449.0,91.619 450.119,90.499 451.500,90.499 Z"/></svg>