<?xml version="1.0" encoding="UTF-8"?>
<svg width="544px" height="336px" viewBox="0 0 544 336" version="1.1" xmlns="http://www.w3.org/2000/svg" xmlns:xlink="http://www.w3.org/1999/xlink">
    <title>模块bg备份 6</title>
    <defs>
        <linearGradient x1="50%" y1="0%" x2="50%" y2="50%" id="linearGradient-1">
            <stop stop-color="#4EE4FF" offset="0%"></stop>
            <stop stop-color="#09358B" offset="100%"></stop>
        </linearGradient>
        <radialGradient cx="50%" cy="100%" fx="50%" fy="100%" r="226.151029%" gradientTransform="translate(0.500000,1.000000),scale(0.088652,1.000000),translate(-0.500000,-1.000000)" id="radialGradient-2">
            <stop stop-color="#27B9FD" offset="0%"></stop>
            <stop stop-color="#1183FA" stop-opacity="0.226480551" offset="100%"></stop>
        </radialGradient>
        <linearGradient x1="50%" y1="0%" x2="50%" y2="97.3501242%" id="linearGradient-3">
            <stop stop-color="#184FA8" offset="0%"></stop>
            <stop stop-color="#051F54" stop-opacity="0.444429838" offset="100%"></stop>
        </linearGradient>
        <radialGradient cx="50%" cy="0%" fx="50%" fy="0%" r="56.8916653%" gradientTransform="translate(0.500000,0.000000),scale(0.090406,1.000000),rotate(90.000000),scale(1.000000,8.432856),translate(-0.500000,-0.000000)" id="radialGradient-4">
            <stop stop-color="#17CDE6" offset="0%"></stop>
            <stop stop-color="#051F54" stop-opacity="0" offset="100%"></stop>
        </radialGradient>
        <radialGradient cx="50%" cy="0%" fx="50%" fy="0%" r="705.020142%" gradientTransform="translate(0.500000,0.000000),scale(0.005556,1.000000),rotate(90.000000),scale(1.000000,12.758730),translate(-0.500000,-0.000000)" id="radialGradient-5">
            <stop stop-color="#90E5FF" offset="0%"></stop>
            <stop stop-color="#2968B4" stop-opacity="0" offset="100%"></stop>
        </radialGradient>
        <radialGradient cx="50%" cy="0%" fx="50%" fy="0%" r="99.9163434%" gradientTransform="translate(0.500000,0.000000),scale(0.041004,1.000000),rotate(90.000000),scale(1.000000,10.632676),translate(-0.500000,-0.000000)" id="radialGradient-6">
            <stop stop-color="#4EC1E4" offset="0%"></stop>
            <stop stop-color="#2E5FB2" stop-opacity="0.139672339" offset="99.9163434%"></stop>
        </radialGradient>
        <radialGradient cx="50%" cy="83.9172911%" fx="50%" fy="83.9172911%" r="472.62814%" gradientTransform="translate(0.500000,0.839173),scale(0.018474,1.000000),rotate(90.000000),scale(1.000000,3.361380),translate(-0.500000,-0.839173)" id="radialGradient-7">
            <stop stop-color="#71D9FF" offset="0%"></stop>
            <stop stop-color="#002A50" stop-opacity="0.258962351" offset="100%"></stop>
        </radialGradient>
        <filter x="-23.9%" y="-23.9%" width="147.8%" height="147.8%" filterUnits="objectBoundingBox" id="filter-8">
            <feGaussianBlur stdDeviation="18" in="SourceGraphic"></feGaussianBlur>
        </filter>
    </defs>
    <g id="页面-1备份" stroke="none" stroke-width="1" fill="none" fill-rule="evenodd">
        <g id="模块bg备份-6" transform="translate(-0.000044, 0.000000)">
            <path d="M543.500044,0.5 L543.500044,335.5 L0.500043579,335.5 L0.500043579,0.5 L245.657216,0.5 L253.566388,7.54979706 L289.944868,7.54979706 L298.053351,0.5 L543.500044,0.5 Z" id="矩形" stroke="url(#linearGradient-1)"></path>
            <polygon id="路径-3" stroke="url(#radialGradient-2)" points="177.000044 43.9968872 182.42906 49 361.464582 49 367.000044 43.9968872 542.580866 43.9968872 542.580866 1 298.157621 1 290.137907 8.04718781 253.327726 8.04718781 244.931127 1 1.13930673 1 1.13930673 43.9968872"></polygon>
            <polygon id="矩形备份-6" fill="url(#linearGradient-3)" opacity="0.650438581" points="5.68434189e-14 0.5 542 0.5 542 44.4968872 366.262135 44.5536793 360.325275 49.5 181.289753 49.5 175.860737 44.4968872 0.0568389893 44.4968872"></polygon>
            <polygon id="矩形备份-57" fill="url(#radialGradient-4)" points="0 8.52651283e-14 244.847686 8.52651283e-14 252.756858 7.04979706 288.75788 7.04979706 296.866362 8.52651283e-14 542 8.52651283e-14 542 43.9968872 366.262135 44.0536793 360.325275 49 181.289753 49 175.860737 43.9968872 0.0568389893 43.9968872"></polygon>
            <rect id="矩形" fill="url(#radialGradient-5)" x="181" y="48.5" width="180" height="1"></rect>
            <path d="M223.1084,15.2959151 C223.462809,15.2959151 223.790297,15.486514 223.967502,15.7959151 L225.378778,18.2600167 C225.555982,18.5694178 225.555982,18.9506156 225.378778,19.2600167 L223.967502,21.7241183 C223.790297,22.0335194 223.462809,22.2241183 223.1084,22.2241183 L220.285847,22.2241183 C219.931438,22.2241183 219.60395,22.0335194 219.426746,21.7241183 L218.015469,19.2600167 C217.838265,18.9506156 217.838265,18.5694178 218.015469,18.2600167 L219.426746,15.7959151 C219.60395,15.486514 219.931438,15.2959151 220.285847,15.2959151 L223.1084,15.2959151 Z M243.504073,15.2959151 C243.858482,15.2959151 244.18597,15.486514 244.363175,15.7959151 L245.774451,18.2600167 C245.951656,18.5694178 245.951656,18.9506156 245.774451,19.2600167 L244.363175,21.7241183 C244.18597,22.0335194 243.858482,22.2241183 243.504073,22.2241183 L240.681521,22.2241183 C240.327111,22.2241183 239.999624,22.0335194 239.822419,21.7241183 L238.411143,19.2600167 C238.233938,18.9506156 238.233938,18.5694178 238.411143,18.2600167 L239.822419,15.7959151 C239.999624,15.486514 240.327111,15.2959151 240.681521,15.2959151 L243.504073,15.2959151 Z M233.250298,15.2959151 C233.604708,15.2959151 233.932195,15.486514 234.1094,15.7959151 L235.520676,18.2600167 C235.697881,18.5694178 235.697881,18.9506156 235.520676,19.2600167 L234.1094,21.7241183 C233.932195,22.0335194 233.604708,22.2241183 233.250298,22.2241183 L230.427746,22.2241183 C230.073337,22.2241183 229.745849,22.0335194 229.568644,21.7241183 L228.157368,19.2600167 C227.980163,18.9506156 227.980163,18.5694178 228.157368,18.2600167 L229.568644,15.7959151 C229.745849,15.486514 230.073337,15.2959151 230.427746,15.2959151 L233.250298,15.2959151 Z M180.865691,15.2959151 C181.220101,15.2959151 181.547588,15.486514 181.724793,15.7959151 L183.136069,18.2600167 C183.313274,18.5694178 183.313274,18.9506156 183.136069,19.2600167 L181.724793,21.7241183 C181.547588,22.0335194 181.220101,22.2241183 180.865691,22.2241183 L178.043139,22.2241183 C177.688729,22.2241183 177.361242,22.0335194 177.184037,21.7241183 L175.772761,19.2600167 C175.595556,18.9506156 175.595556,18.5694178 175.772761,18.2600167 L177.184037,15.7959151 C177.361242,15.486514 177.688729,15.2959151 178.043139,15.2959151 L180.865691,15.2959151 Z M201.261365,15.2959151 C201.615774,15.2959151 201.943262,15.486514 202.120466,15.7959151 L203.531743,18.2600167 C203.708947,18.5694178 203.708947,18.9506156 203.531743,19.2600167 L202.120466,21.7241183 C201.943262,22.0335194 201.615774,22.2241183 201.261365,22.2241183 L198.438812,22.2241183 C198.084403,22.2241183 197.756915,22.0335194 197.57971,21.7241183 L196.168434,19.2600167 C195.991229,18.9506156 195.991229,18.5694178 196.168434,18.2600167 L197.57971,15.7959151 C197.756915,15.486514 198.084403,15.2959151 198.438812,15.2959151 L201.261365,15.2959151 Z M191.00759,15.2959151 C191.361999,15.2959151 191.689487,15.486514 191.866692,15.7959151 L193.277968,18.2600167 C193.455172,18.5694178 193.455172,18.9506156 193.277968,19.2600167 L191.866692,21.7241183 C191.689487,22.0335194 191.361999,22.2241183 191.00759,22.2241183 L188.185037,22.2241183 C187.830628,22.2241183 187.50314,22.0335194 187.325936,21.7241183 L185.914659,19.2600167 C185.737455,18.9506156 185.737455,18.5694178 185.914659,18.2600167 L187.325936,15.7959151 C187.50314,15.486514 187.830628,15.2959151 188.185037,15.2959151 L191.00759,15.2959151 Z M116.527386,15.2959151 C116.881795,15.2959151 117.209283,15.486514 117.386488,15.7959151 L118.797764,18.2600167 C118.974969,18.5694178 118.974969,18.9506156 118.797764,19.2600167 L117.386488,21.7241183 C117.209283,22.0335194 116.881795,22.2241183 116.527386,22.2241183 L113.704834,22.2241183 C113.350424,22.2241183 113.022937,22.0335194 112.845732,21.7241183 L111.434456,19.2600167 C111.257251,18.9506156 111.257251,18.5694178 111.434456,18.2600167 L112.845732,15.7959151 C113.022937,15.486514 113.350424,15.2959151 113.704834,15.2959151 L116.527386,15.2959151 Z M96.1317127,15.2959151 C96.4861221,15.2959151 96.8136098,15.486514 96.9908145,15.7959151 L98.4020907,18.2600167 C98.5792954,18.5694178 98.5792954,18.9506156 98.4020907,19.2600167 L96.9908145,21.7241183 C96.8136098,22.0335194 96.4861221,22.2241183 96.1317127,22.2241183 L93.3091603,22.2241183 C92.9547509,22.2241183 92.6272632,22.0335194 92.4500585,21.7241183 L91.0387823,19.2600167 C90.8615776,18.9506156 90.8615776,18.5694178 91.0387823,18.2600167 L92.4500585,15.7959151 C92.6272632,15.486514 92.9547509,15.2959151 93.3091603,15.2959151 L96.1317127,15.2959151 Z M53.8890041,15.2959151 C54.2434135,15.2959151 54.5709013,15.486514 54.748106,15.7959151 L56.1593821,18.2600167 C56.3365868,18.5694178 56.3365868,18.9506156 56.1593821,19.2600167 L54.748106,21.7241183 C54.5709013,22.0335194 54.2434135,22.2241183 53.8890041,22.2241183 L51.0664518,22.2241183 C50.7120424,22.2241183 50.3845546,22.0335194 50.2073499,21.7241183 L48.7960738,19.2600167 C48.6188691,18.9506156 48.6188691,18.5694178 48.7960738,18.2600167 L50.2073499,15.7959151 C50.3845546,15.486514 50.7120424,15.2959151 51.0664518,15.2959151 L53.8890041,15.2959151 Z M74.2846775,15.2959151 C74.6390869,15.2959151 74.9665746,15.486514 75.1437793,15.7959151 L76.5550555,18.2600167 C76.7322602,18.5694178 76.7322602,18.9506156 76.5550555,19.2600167 L75.1437793,21.7241183 C74.9665746,22.0335194 74.6390869,22.2241183 74.2846775,22.2241183 L71.4621251,22.2241183 C71.1077157,22.2241183 70.780228,22.0335194 70.6030233,21.7241183 L69.1917471,19.2600167 C69.0145424,18.9506156 69.0145424,18.5694178 69.1917471,18.2600167 L70.6030233,15.7959151 C70.780228,15.486514 71.1077157,15.2959151 71.4621251,15.2959151 L74.2846775,15.2959151 Z M64.0309028,15.2959151 C64.3853121,15.2959151 64.7127999,15.486514 64.8900046,15.7959151 L66.3012808,18.2600167 C66.4784855,18.5694178 66.4784855,18.9506156 66.3012808,19.2600167 L64.8900046,21.7241183 C64.7127999,22.0335194 64.3853121,22.2241183 64.0309028,22.2241183 L61.2083504,22.2241183 C60.853941,22.2241183 60.5264533,22.0335194 60.3492486,21.7241183 L58.9379724,19.2600167 C58.7607677,18.9506156 58.7607677,18.5694178 58.9379724,18.2600167 L60.3492486,15.7959151 C60.5264533,15.486514 60.853941,15.2959151 61.2083504,15.2959151 L64.0309028,15.2959151 Z M106.273611,15.2959151 C106.628021,15.2959151 106.955508,15.486514 107.132713,15.7959151 L108.543989,18.2600167 C108.721194,18.5694178 108.721194,18.9506156 108.543989,19.2600167 L107.132713,21.7241183 C106.955508,22.0335194 106.628021,22.2241183 106.273611,22.2241183 L103.451059,22.2241183 C103.09665,22.2241183 102.769162,22.0335194 102.591957,21.7241183 L101.180681,19.2600167 C101.003476,18.9506156 101.003476,18.5694178 101.180681,18.2600167 L102.591957,15.7959151 C102.769162,15.486514 103.09665,15.2959151 103.451059,15.2959151 L106.273611,15.2959151 Z M443.273842,15.2959151 C443.628251,15.2959151 443.955739,15.486514 444.132944,15.7959151 L445.54422,18.2600167 C445.721425,18.5694178 445.721425,18.9506156 445.54422,19.2600167 L444.132944,21.7241183 C443.955739,22.0335194 443.628251,22.2241183 443.273842,22.2241183 L440.45129,22.2241183 C440.09688,22.2241183 439.769392,22.0335194 439.592188,21.7241183 L438.180912,19.2600167 C438.003707,18.9506156 438.003707,18.5694178 438.180912,18.2600167 L439.592188,15.7959151 C439.769392,15.486514 440.09688,15.2959151 440.45129,15.2959151 L443.273842,15.2959151 Z M453.527617,15.2959151 C453.882026,15.2959151 454.209514,15.486514 454.386718,15.7959151 L455.797995,18.2600167 C455.975199,18.5694178 455.975199,18.9506156 455.797995,19.2600167 L454.386718,21.7241183 C454.209514,22.0335194 453.882026,22.2241183 453.527617,22.2241183 L450.705064,22.2241183 C450.350655,22.2241183 450.023167,22.0335194 449.845962,21.7241183 L448.434686,19.2600167 C448.257482,18.9506156 448.257482,18.5694178 448.434686,18.2600167 L449.845962,15.7959151 C450.023167,15.486514 450.350655,15.2959151 450.705064,15.2959151 L453.527617,15.2959151 Z M433.131943,15.2959151 C433.486353,15.2959151 433.81384,15.486514 433.991045,15.7959151 L435.402321,18.2600167 C435.579526,18.5694178 435.579526,18.9506156 435.402321,19.2600167 L433.991045,21.7241183 C433.81384,22.0335194 433.486353,22.2241183 433.131943,22.2241183 L430.309391,22.2241183 C429.954982,22.2241183 429.627494,22.0335194 429.450289,21.7241183 L428.039013,19.2600167 C427.861808,18.9506156 427.861808,18.5694178 428.039013,18.2600167 L429.450289,15.7959151 C429.627494,15.486514 429.954982,15.2959151 430.309391,15.2959151 L433.131943,15.2959151 Z M485.51655,15.2959151 C485.87096,15.2959151 486.198448,15.486514 486.375652,15.7959151 L487.786928,18.2600167 C487.964133,18.5694178 487.964133,18.9506156 487.786928,19.2600167 L486.375652,21.7241183 C486.198448,22.0335194 485.87096,22.2241183 485.51655,22.2241183 L482.693998,22.2241183 C482.339589,22.2241183 482.012101,22.0335194 481.834896,21.7241183 L480.42362,19.2600167 C480.246415,18.9506156 480.246415,18.5694178 480.42362,18.2600167 L481.834896,15.7959151 C482.012101,15.486514 482.339589,15.2959151 482.693998,15.2959151 L485.51655,15.2959151 Z M495.770325,15.2959151 C496.124735,15.2959151 496.452222,15.486514 496.629427,15.7959151 L498.040703,18.2600167 C498.217908,18.5694178 498.217908,18.9506156 498.040703,19.2600167 L496.629427,21.7241183 C496.452222,22.0335194 496.124735,22.2241183 495.770325,22.2241183 L492.947773,22.2241183 C492.593363,22.2241183 492.265876,22.0335194 492.088671,21.7241183 L490.677395,19.2600167 C490.50019,18.9506156 490.50019,18.5694178 490.677395,18.2600167 L492.088671,15.7959151 C492.265876,15.486514 492.593363,15.2959151 492.947773,15.2959151 L495.770325,15.2959151 Z M475.374652,15.2959151 C475.729061,15.2959151 476.056549,15.486514 476.233754,15.7959151 L477.64503,18.2600167 C477.822235,18.5694178 477.822235,18.9506156 477.64503,19.2600167 L476.233754,21.7241183 C476.056549,22.0335194 475.729061,22.2241183 475.374652,22.2241183 L472.552099,22.2241183 C472.19769,22.2241183 471.870202,22.0335194 471.692998,21.7241183 L470.281721,19.2600167 C470.104517,18.9506156 470.104517,18.5694178 470.281721,18.2600167 L471.692998,15.7959151 C471.870202,15.486514 472.19769,15.2959151 472.552099,15.2959151 L475.374652,15.2959151 Z M348.397965,15.2959151 C348.752374,15.2959151 349.079862,15.486514 349.257067,15.7959151 L350.668343,18.2600167 C350.845548,18.5694178 350.845548,18.9506156 350.668343,19.2600167 L349.257067,21.7241183 C349.079862,22.0335194 348.752374,22.2241183 348.397965,22.2241183 L345.575412,22.2241183 C345.221003,22.2241183 344.893515,22.0335194 344.716311,21.7241183 L343.305034,19.2600167 C343.12783,18.9506156 343.12783,18.5694178 343.305034,18.2600167 L344.716311,15.7959151 C344.893515,15.486514 345.221003,15.2959151 345.575412,15.2959151 L348.397965,15.2959151 Z M306.155256,15.2959151 C306.509666,15.2959151 306.837153,15.486514 307.014358,15.7959151 L308.425634,18.2600167 C308.602839,18.5694178 308.602839,18.9506156 308.425634,19.2600167 L307.014358,21.7241183 C306.837153,22.0335194 306.509666,22.2241183 306.155256,22.2241183 L303.332704,22.2241183 C302.978295,22.2241183 302.650807,22.0335194 302.473602,21.7241183 L301.062326,19.2600167 C300.885121,18.9506156 300.885121,18.5694178 301.062326,18.2600167 L302.473602,15.7959151 C302.650807,15.486514 302.978295,15.2959151 303.332704,15.2959151 L306.155256,15.2959151 Z M326.55093,15.2959151 C326.905339,15.2959151 327.232827,15.486514 327.410031,15.7959151 L328.821308,18.2600167 C328.998512,18.5694178 328.998512,18.9506156 328.821308,19.2600167 L327.410031,21.7241183 C327.232827,22.0335194 326.905339,22.2241183 326.55093,22.2241183 L323.728377,22.2241183 C323.373968,22.2241183 323.04648,22.0335194 322.869275,21.7241183 L321.457999,19.2600167 C321.280795,18.9506156 321.280795,18.5694178 321.457999,18.2600167 L322.869275,15.7959151 C323.04648,15.486514 323.373968,15.2959151 323.728377,15.2959151 L326.55093,15.2959151 Z M316.297155,15.2959151 C316.651564,15.2959151 316.979052,15.486514 317.156257,15.7959151 L318.567533,18.2600167 C318.744738,18.5694178 318.744738,18.9506156 318.567533,19.2600167 L317.156257,21.7241183 C316.979052,22.0335194 316.651564,22.2241183 316.297155,22.2241183 L313.474603,22.2241183 C313.120193,22.2241183 312.792705,22.0335194 312.615501,21.7241183 L311.204225,19.2600167 C311.02702,18.9506156 311.02702,18.5694178 311.204225,18.2600167 L312.615501,15.7959151 C312.792705,15.486514 313.120193,15.2959151 313.474603,15.2959151 L316.297155,15.2959151 Z M358.539863,15.2959151 C358.894273,15.2959151 359.221761,15.486514 359.398965,15.7959151 L360.810241,18.2600167 C360.987446,18.5694178 360.987446,18.9506156 360.810241,19.2600167 L359.398965,21.7241183 C359.221761,22.0335194 358.894273,22.2241183 358.539863,22.2241183 L355.717311,22.2241183 C355.362902,22.2241183 355.035414,22.0335194 354.858209,21.7241183 L353.446933,19.2600167 C353.269728,18.9506156 353.269728,18.5694178 353.446933,18.2600167 L354.858209,15.7959151 C355.035414,15.486514 355.362902,15.2959151 355.717311,15.2959151 L358.539863,15.2959151 Z M368.793638,15.2959151 C369.148048,15.2959151 369.475535,15.486514 369.65274,15.7959151 L371.064016,18.2600167 C371.241221,18.5694178 371.241221,18.9506156 371.064016,19.2600167 L369.65274,21.7241183 C369.475535,22.0335194 369.148048,22.2241183 368.793638,22.2241183 L365.971086,22.2241183 C365.616676,22.2241183 365.289189,22.0335194 365.111984,21.7241183 L363.700708,19.2600167 C363.523503,18.9506156 363.523503,18.5694178 363.700708,18.2600167 L365.111984,15.7959151 C365.289189,15.486514 365.616676,15.2959151 365.971086,15.2959151 L368.793638,15.2959151 Z M127.80275,14.5837721 C128.157159,14.5837721 128.484647,14.7743711 128.661852,15.0837721 L130.073128,17.5478737 C130.250333,17.8572748 130.250333,18.2384727 130.073128,18.5478737 L128.661852,21.0119754 C128.484647,21.3213764 128.157159,21.5119754 127.80275,21.5119754 L124.980198,21.5119754 C124.625788,21.5119754 124.298301,21.3213764 124.121096,21.0119754 L122.70982,18.5478737 C122.532615,18.2384727 122.532615,17.8572748 122.70982,17.5478737 L124.121096,15.0837721 C124.298301,14.7743711 124.625788,14.5837721 124.980198,14.5837721 L127.80275,14.5837721 Z M11.6462956,14.5837721 C12.000705,14.5837721 12.3281927,14.7743711 12.5053974,15.0837721 L13.9166736,17.5478737 C14.0938783,17.8572748 14.0938783,18.2384727 13.9166736,18.5478737 L12.5053974,21.0119754 C12.3281927,21.3213764 12.000705,21.5119754 11.6462956,21.5119754 L8.82374325,21.5119754 C8.46933386,21.5119754 8.14184609,21.3213764 7.9646414,21.0119754 L6.55336523,18.5478737 C6.37616054,18.2384727 6.37616054,17.8572748 6.55336523,17.5478737 L7.9646414,15.0837721 C8.14184609,14.7743711 8.46933386,14.5837721 8.82374325,14.5837721 L11.6462956,14.5837721 Z M21.7881942,14.5837721 C22.1426036,14.5837721 22.4700914,14.7743711 22.6472961,15.0837721 L24.0585722,17.5478737 C24.2357769,17.8572748 24.2357769,18.2384727 24.0585722,18.5478737 L22.6472961,21.0119754 C22.4700914,21.3213764 22.1426036,21.5119754 21.7881942,21.5119754 L18.9656419,21.5119754 C18.6112325,21.5119754 18.2837447,21.3213764 18.10654,21.0119754 L16.6952639,18.5478737 C16.5180592,18.2384727 16.5180592,17.8572748 16.6952639,17.5478737 L18.10654,15.0837721 C18.2837447,14.7743711 18.6112325,14.5837721 18.9656419,14.5837721 L21.7881942,14.5837721 Z M32.0419689,14.5837721 C32.3963783,14.5837721 32.7238661,14.7743711 32.9010708,15.0837721 L34.3123469,17.5478737 C34.4895516,17.8572748 34.4895516,18.2384727 34.3123469,18.5478737 L32.9010708,21.0119754 C32.7238661,21.3213764 32.3963783,21.5119754 32.0419689,21.5119754 L29.2194166,21.5119754 C28.8650072,21.5119754 28.5375194,21.3213764 28.3603147,21.0119754 L26.9490386,18.5478737 C26.7718339,18.2384727 26.7718339,17.8572748 26.9490386,17.5478737 L28.3603147,15.0837721 C28.5375194,14.7743711 28.8650072,14.5837721 29.2194166,14.5837721 L32.0419689,14.5837721 Z M43.0036615,14.5837721 C43.3580709,14.5837721 43.6855587,14.7743711 43.8627634,15.0837721 L45.2740396,17.5478737 C45.4512442,17.8572748 45.4512442,18.2384727 45.2740396,18.5478737 L43.8627634,21.0119754 C43.6855587,21.3213764 43.3580709,21.5119754 43.0036615,21.5119754 L40.1811092,21.5119754 C39.8266998,21.5119754 39.499212,21.3213764 39.3220074,21.0119754 L37.9107312,18.5478737 C37.7335265,18.2384727 37.7335265,17.8572748 37.9107312,17.5478737 L39.3220074,15.0837721 C39.499212,14.7743711 39.8266998,14.5837721 40.1811092,14.5837721 L43.0036615,14.5837721 Z M84.667887,14.5837721 C85.0222964,14.5837721 85.3497841,14.7743711 85.5269888,15.0837721 L86.938265,17.5478737 C87.1154697,17.8572748 87.1154697,18.2384727 86.938265,18.5478737 L85.5269888,21.0119754 C85.3497841,21.3213764 85.0222964,21.5119754 84.667887,21.5119754 L81.8453346,21.5119754 C81.4909252,21.5119754 81.1634375,21.3213764 80.9862328,21.0119754 L79.5749566,18.5478737 C79.3977519,18.2384727 79.3977519,17.8572748 79.5749566,17.5478737 L80.9862328,15.0837721 C81.1634375,14.7743711 81.4909252,14.5837721 81.8453346,14.5837721 L84.667887,14.5837721 Z M138.622983,14.5837721 C138.977392,14.5837721 139.30488,14.7743711 139.482084,15.0837721 L140.893361,17.5478737 C141.070565,17.8572748 141.070565,18.2384727 140.893361,18.5478737 L139.482084,21.0119754 C139.30488,21.3213764 138.977392,21.5119754 138.622983,21.5119754 L135.80043,21.5119754 C135.446021,21.5119754 135.118533,21.3213764 134.941328,21.0119754 L133.530052,18.5478737 C133.352848,18.2384727 133.352848,17.8572748 133.530052,17.5478737 L134.941328,15.0837721 C135.118533,14.7743711 135.446021,14.5837721 135.80043,14.5837721 L138.622983,14.5837721 Z M148.764881,14.5837721 C149.119291,14.5837721 149.446778,14.7743711 149.623983,15.0837721 L151.035259,17.5478737 C151.212464,17.8572748 151.212464,18.2384727 151.035259,18.5478737 L149.623983,21.0119754 C149.446778,21.3213764 149.119291,21.5119754 148.764881,21.5119754 L145.942329,21.5119754 C145.58792,21.5119754 145.260432,21.3213764 145.083227,21.0119754 L143.671951,18.5478737 C143.494746,18.2384727 143.494746,17.8572748 143.671951,17.5478737 L145.083227,15.0837721 C145.260432,14.7743711 145.58792,14.5837721 145.942329,14.5837721 L148.764881,14.5837721 Z M159.018656,14.5837721 C159.373065,14.5837721 159.700553,14.7743711 159.877758,15.0837721 L161.289034,17.5478737 C161.466239,17.8572748 161.466239,18.2384727 161.289034,18.5478737 L159.877758,21.0119754 C159.700553,21.3213764 159.373065,21.5119754 159.018656,21.5119754 L156.196104,21.5119754 C155.841694,21.5119754 155.514206,21.3213764 155.337002,21.0119754 L153.925726,18.5478737 C153.748521,18.2384727 153.748521,17.8572748 153.925726,17.5478737 L155.337002,15.0837721 C155.514206,14.7743711 155.841694,14.5837721 156.196104,14.5837721 L159.018656,14.5837721 Z M169.980349,14.5837721 C170.334758,14.5837721 170.662246,14.7743711 170.83945,15.0837721 L172.250727,17.5478737 C172.427931,17.8572748 172.427931,18.2384727 172.250727,18.5478737 L170.83945,21.0119754 C170.662246,21.3213764 170.334758,21.5119754 169.980349,21.5119754 L167.157796,21.5119754 C166.803387,21.5119754 166.475899,21.3213764 166.298694,21.0119754 L164.887418,18.5478737 C164.710214,18.2384727 164.710214,17.8572748 164.887418,17.5478737 L166.298694,15.0837721 C166.475899,14.7743711 166.803387,14.5837721 167.157796,14.5837721 L169.980349,14.5837721 Z M211.644574,14.5837721 C211.998983,14.5837721 212.326471,14.7743711 212.503676,15.0837721 L213.914952,17.5478737 C214.092157,17.8572748 214.092157,18.2384727 213.914952,18.5478737 L212.503676,21.0119754 C212.326471,21.3213764 211.998983,21.5119754 211.644574,21.5119754 L208.822022,21.5119754 C208.467612,21.5119754 208.140125,21.3213764 207.96292,21.0119754 L206.551644,18.5478737 C206.374439,18.2384727 206.374439,17.8572748 206.551644,17.5478737 L207.96292,15.0837721 C208.140125,14.7743711 208.467612,14.5837721 208.822022,14.5837721 L211.644574,14.5837721 Z M380.069002,14.5837721 C380.423412,14.5837721 380.750899,14.7743711 380.928104,15.0837721 L382.33938,17.5478737 C382.516585,17.8572748 382.516585,18.2384727 382.33938,18.5478737 L380.928104,21.0119754 C380.750899,21.3213764 380.423412,21.5119754 380.069002,21.5119754 L377.24645,21.5119754 C376.89204,21.5119754 376.564553,21.3213764 376.387348,21.0119754 L374.976072,18.5478737 C374.798867,18.2384727 374.798867,17.8572748 374.976072,17.5478737 L376.387348,15.0837721 C376.564553,14.7743711 376.89204,14.5837721 377.24645,14.5837721 L380.069002,14.5837721 Z M263.912548,14.5837721 C264.266957,14.5837721 264.594445,14.7743711 264.77165,15.0837721 L266.182926,17.5478737 C266.36013,17.8572748 266.36013,18.2384727 266.182926,18.5478737 L264.77165,21.0119754 C264.594445,21.3213764 264.266957,21.5119754 263.912548,21.5119754 L261.089995,21.5119754 C260.735586,21.5119754 260.408098,21.3213764 260.230894,21.0119754 L258.819617,18.5478737 C258.642413,18.2384727 258.642413,17.8572748 258.819617,17.5478737 L260.230894,15.0837721 C260.408098,14.7743711 260.735586,14.5837721 261.089995,14.5837721 L263.912548,14.5837721 Z M274.054446,14.5837721 C274.408856,14.5837721 274.736343,14.7743711 274.913548,15.0837721 L276.324824,17.5478737 C276.502029,17.8572748 276.502029,18.2384727 276.324824,18.5478737 L274.913548,21.0119754 C274.736343,21.3213764 274.408856,21.5119754 274.054446,21.5119754 L271.231894,21.5119754 C270.877485,21.5119754 270.549997,21.3213764 270.372792,21.0119754 L268.961516,18.5478737 C268.784311,18.2384727 268.784311,17.8572748 268.961516,17.5478737 L270.372792,15.0837721 C270.549997,14.7743711 270.877485,14.5837721 271.231894,14.5837721 L274.054446,14.5837721 Z M284.308221,14.5837721 C284.66263,14.5837721 284.990118,14.7743711 285.167323,15.0837721 L286.578599,17.5478737 C286.755804,17.8572748 286.755804,18.2384727 286.578599,18.5478737 L285.167323,21.0119754 C284.990118,21.3213764 284.66263,21.5119754 284.308221,21.5119754 L281.485669,21.5119754 C281.131259,21.5119754 280.803772,21.3213764 280.626567,21.0119754 L279.215291,18.5478737 C279.038086,18.2384727 279.038086,17.8572748 279.215291,17.5478737 L280.626567,15.0837721 C280.803772,14.7743711 281.131259,14.5837721 281.485669,14.5837721 L284.308221,14.5837721 Z M253.93197,14.5837721 C254.28638,14.5837721 254.613867,14.7743711 254.791072,15.0837721 L256.202348,17.5478737 C256.379553,17.8572748 256.379553,18.2384727 256.202348,18.5478737 L254.791072,21.0119754 C254.613867,21.3213764 254.28638,21.5119754 253.93197,21.5119754 L251.109418,21.5119754 C250.755009,21.5119754 250.427521,21.3213764 250.250316,21.0119754 L248.83904,18.5478737 C248.661835,18.2384727 248.661835,17.8572748 248.83904,17.5478737 L250.250316,15.0837721 C250.427521,14.7743711 250.755009,14.5837721 251.109418,14.5837721 L253.93197,14.5837721 Z M295.269914,14.5837721 C295.624323,14.5837721 295.951811,14.7743711 296.129016,15.0837721 L297.540292,17.5478737 C297.717496,17.8572748 297.717496,18.2384727 297.540292,18.5478737 L296.129016,21.0119754 C295.951811,21.3213764 295.624323,21.5119754 295.269914,21.5119754 L292.447361,21.5119754 C292.092952,21.5119754 291.765464,21.3213764 291.588259,21.0119754 L290.176983,18.5478737 C289.999779,18.2384727 289.999779,17.8572748 290.176983,17.5478737 L291.588259,15.0837721 C291.765464,14.7743711 292.092952,14.5837721 292.447361,14.5837721 L295.269914,14.5837721 Z M336.934139,14.5837721 C337.288548,14.5837721 337.616036,14.7743711 337.793241,15.0837721 L339.204517,17.5478737 C339.381722,17.8572748 339.381722,18.2384727 339.204517,18.5478737 L337.793241,21.0119754 C337.616036,21.3213764 337.288548,21.5119754 336.934139,21.5119754 L334.111587,21.5119754 C333.757177,21.5119754 333.42969,21.3213764 333.252485,21.0119754 L331.841209,18.5478737 C331.664004,18.2384727 331.664004,17.8572748 331.841209,17.5478737 L333.252485,15.0837721 C333.42969,14.7743711 333.757177,14.5837721 334.111587,14.5837721 L336.934139,14.5837721 Z M390.889235,14.5837721 C391.243644,14.5837721 391.571132,14.7743711 391.748337,15.0837721 L393.159613,17.5478737 C393.336817,17.8572748 393.336817,18.2384727 393.159613,18.5478737 L391.748337,21.0119754 C391.571132,21.3213764 391.243644,21.5119754 390.889235,21.5119754 L388.066682,21.5119754 C387.712273,21.5119754 387.384785,21.3213764 387.207581,21.0119754 L385.796304,18.5478737 C385.6191,18.2384727 385.6191,17.8572748 385.796304,17.5478737 L387.207581,15.0837721 C387.384785,14.7743711 387.712273,14.5837721 388.066682,14.5837721 L390.889235,14.5837721 Z M401.031133,14.5837721 C401.385543,14.5837721 401.713031,14.7743711 401.890235,15.0837721 L403.301511,17.5478737 C403.478716,17.8572748 403.478716,18.2384727 403.301511,18.5478737 L401.890235,21.0119754 C401.713031,21.3213764 401.385543,21.5119754 401.031133,21.5119754 L398.208581,21.5119754 C397.854172,21.5119754 397.526684,21.3213764 397.349479,21.0119754 L395.938203,18.5478737 C395.760998,18.2384727 395.760998,17.8572748 395.938203,17.5478737 L397.349479,15.0837721 C397.526684,14.7743711 397.854172,14.5837721 398.208581,14.5837721 L401.031133,14.5837721 Z M411.284908,14.5837721 C411.639317,14.5837721 411.966805,14.7743711 412.14401,15.0837721 L413.555286,17.5478737 C413.732491,17.8572748 413.732491,18.2384727 413.555286,18.5478737 L412.14401,21.0119754 C411.966805,21.3213764 411.639317,21.5119754 411.284908,21.5119754 L408.462356,21.5119754 C408.107946,21.5119754 407.780459,21.3213764 407.603254,21.0119754 L406.191978,18.5478737 C406.014773,18.2384727 406.014773,17.8572748 406.191978,17.5478737 L407.603254,15.0837721 C407.780459,14.7743711 408.107946,14.5837721 408.462356,14.5837721 L411.284908,14.5837721 Z M422.246601,14.5837721 C422.60101,14.5837721 422.928498,14.7743711 423.105703,15.0837721 L424.516979,17.5478737 C424.694183,17.8572748 424.694183,18.2384727 424.516979,18.5478737 L423.105703,21.0119754 C422.928498,21.3213764 422.60101,21.5119754 422.246601,21.5119754 L419.424048,21.5119754 C419.069639,21.5119754 418.742151,21.3213764 418.564947,21.0119754 L417.15367,18.5478737 C416.976466,18.2384727 416.976466,17.8572748 417.15367,17.5478737 L418.564947,15.0837721 C418.742151,14.7743711 419.069639,14.5837721 419.424048,14.5837721 L422.246601,14.5837721 Z M463.910826,14.5837721 C464.265236,14.5837721 464.592723,14.7743711 464.769928,15.0837721 L466.181204,17.5478737 C466.358409,17.8572748 466.358409,18.2384727 466.181204,18.5478737 L464.769928,21.0119754 C464.592723,21.3213764 464.265236,21.5119754 463.910826,21.5119754 L461.088274,21.5119754 C460.733864,21.5119754 460.406377,21.3213764 460.229172,21.0119754 L458.817896,18.5478737 C458.640691,18.2384727 458.640691,17.8572748 458.817896,17.5478737 L460.229172,15.0837721 C460.406377,14.7743711 460.733864,14.5837721 461.088274,14.5837721 L463.910826,14.5837721 Z M321.130511,7.63566104 C321.484921,7.63566104 321.812409,7.82625996 321.989613,8.13566104 L323.400889,10.5997627 C323.578094,10.9091637 323.578094,11.2903616 323.400889,11.5997627 L321.989613,14.0638643 C321.812409,14.3732653 321.484921,14.5638643 321.130511,14.5638643 L318.307959,14.5638643 C317.95355,14.5638643 317.626062,14.3732653 317.448857,14.0638643 L316.037581,11.5997627 C315.860376,11.2903616 315.860376,10.9091637 316.037581,10.5997627 L317.448857,8.13566104 C317.626062,7.82625996 317.95355,7.63566104 318.307959,7.63566104 L321.130511,7.63566104 Z M331.777384,7.63566104 C332.131793,7.63566104 332.459281,7.82625996 332.636486,8.13566104 L334.047762,10.5997627 C334.224967,10.9091637 334.224967,11.2903616 334.047762,11.5997627 L332.636486,14.0638643 C332.459281,14.3732653 332.131793,14.5638643 331.777384,14.5638643 L328.954832,14.5638643 C328.600422,14.5638643 328.272935,14.3732653 328.09573,14.0638643 L326.684454,11.5997627 C326.507249,11.2903616 326.507249,10.9091637 326.684454,10.5997627 L328.09573,8.13566104 C328.272935,7.82625996 328.600422,7.63566104 328.954832,7.63566104 L331.777384,7.63566104 Z M458.754071,7.63566104 C459.10848,7.63566104 459.435968,7.82625996 459.613173,8.13566104 L461.024449,10.5997627 C461.201654,10.9091637 461.201654,11.2903616 461.024449,11.5997627 L459.613173,14.0638643 C459.435968,14.3732653 459.10848,14.5638643 458.754071,14.5638643 L455.931519,14.5638643 C455.577109,14.5638643 455.249622,14.3732653 455.072417,14.0638643 L453.661141,11.5997627 C453.483936,11.2903616 453.483936,10.9091637 453.661141,10.5997627 L455.072417,8.13566104 C455.249622,7.82625996 455.577109,7.63566104 455.931519,7.63566104 L458.754071,7.63566104 Z M448.107198,7.63566104 C448.461608,7.63566104 448.789096,7.82625996 448.9663,8.13566104 L450.377577,10.5997627 C450.554781,10.9091637 450.554781,11.2903616 450.377577,11.5997627 L448.9663,14.0638643 C448.789096,14.3732653 448.461608,14.5638643 448.107198,14.5638643 L445.284646,14.5638643 C444.930237,14.5638643 444.602749,14.3732653 444.425544,14.0638643 L443.014268,11.5997627 C442.837063,11.2903616 442.837063,10.9091637 443.014268,10.5997627 L444.425544,8.13566104 C444.602749,7.82625996 444.930237,7.63566104 445.284646,7.63566104 L448.107198,7.63566104 Z M438.358398,7.63566104 C438.712807,7.63566104 439.040295,7.82625996 439.2175,8.13566104 L440.628776,10.5997627 C440.80598,10.9091637 440.80598,11.2903616 440.628776,11.5997627 L439.2175,14.0638643 C439.040295,14.3732653 438.712807,14.5638643 438.358398,14.5638643 L435.535845,14.5638643 C435.181436,14.5638643 434.853948,14.3732653 434.676744,14.0638643 L433.265467,11.5997627 C433.088263,11.2903616 433.088263,10.9091637 433.265467,10.5997627 L434.676744,8.13566104 C434.853948,7.82625996 435.181436,7.63566104 435.535845,7.63566104 L438.358398,7.63566104 Z M427.711525,7.63566104 C428.065935,7.63566104 428.393422,7.82625996 428.570627,8.13566104 L429.981903,10.5997627 C430.159108,10.9091637 430.159108,11.2903616 429.981903,11.5997627 L428.570627,14.0638643 C428.393422,14.3732653 428.065935,14.5638643 427.711525,14.5638643 L424.888973,14.5638643 C424.534563,14.5638643 424.207076,14.3732653 424.029871,14.0638643 L422.618595,11.5997627 C422.44139,11.2903616 422.44139,10.9091637 422.618595,10.5997627 L424.029871,8.13566104 C424.207076,7.82625996 424.534563,7.63566104 424.888973,7.63566104 L427.711525,7.63566104 Z M500.99678,7.63566104 C501.351189,7.63566104 501.678677,7.82625996 501.855881,8.13566104 L503.267158,10.5997627 C503.444362,10.9091637 503.444362,11.2903616 503.267158,11.5997627 L501.855881,14.0638643 C501.678677,14.3732653 501.351189,14.5638643 500.99678,14.5638643 L498.174227,14.5638643 C497.819818,14.5638643 497.49233,14.3732653 497.315125,14.0638643 L495.903849,11.5997627 C495.726645,11.2903616 495.726645,10.9091637 495.903849,10.5997627 L497.315125,8.13566104 C497.49233,7.82625996 497.819818,7.63566104 498.174227,7.63566104 L500.99678,7.63566104 Z M490.349907,7.63566104 C490.704316,7.63566104 491.031804,7.82625996 491.209009,8.13566104 L492.620285,10.5997627 C492.79749,10.9091637 492.79749,11.2903616 492.620285,11.5997627 L491.209009,14.0638643 C491.031804,14.3732653 490.704316,14.5638643 490.349907,14.5638643 L487.527355,14.5638643 C487.172945,14.5638643 486.845458,14.3732653 486.668253,14.0638643 L485.256977,11.5997627 C485.079772,11.2903616 485.079772,10.9091637 485.256977,10.5997627 L486.668253,8.13566104 C486.845458,7.82625996 487.172945,7.63566104 487.527355,7.63566104 L490.349907,7.63566104 Z M480.601106,7.63566104 C480.955516,7.63566104 481.283003,7.82625996 481.460208,8.13566104 L482.871484,10.5997627 C483.048689,10.9091637 483.048689,11.2903616 482.871484,11.5997627 L481.460208,14.0638643 C481.283003,14.3732653 480.955516,14.5638643 480.601106,14.5638643 L477.778554,14.5638643 C477.424145,14.5638643 477.096657,14.3732653 476.919452,14.0638643 L475.508176,11.5997627 C475.330971,11.2903616 475.330971,10.9091637 475.508176,10.5997627 L476.919452,8.13566104 C477.096657,7.82625996 477.424145,7.63566104 477.778554,7.63566104 L480.601106,7.63566104 Z M311.381711,7.63566104 C311.73612,7.63566104 312.063608,7.82625996 312.240813,8.13566104 L313.652089,10.5997627 C313.829293,10.9091637 313.829293,11.2903616 313.652089,11.5997627 L312.240813,14.0638643 C312.063608,14.3732653 311.73612,14.5638643 311.381711,14.5638643 L308.559158,14.5638643 C308.204749,14.5638643 307.877261,14.3732653 307.700057,14.0638643 L306.28878,11.5997627 C306.111576,11.2903616 306.111576,10.9091637 306.28878,10.5997627 L307.700057,8.13566104 C307.877261,7.82625996 308.204749,7.63566104 308.559158,7.63566104 L311.381711,7.63566104 Z M300.734838,7.63566104 C301.089248,7.63566104 301.416735,7.82625996 301.59394,8.13566104 L303.005216,10.5997627 C303.182421,10.9091637 303.182421,11.2903616 303.005216,11.5997627 L301.59394,14.0638643 C301.416735,14.3732653 301.089248,14.5638643 300.734838,14.5638643 L297.912286,14.5638643 C297.557876,14.5638643 297.230389,14.3732653 297.053184,14.0638643 L295.641908,11.5997627 C295.464703,11.2903616 295.464703,10.9091637 295.641908,10.5997627 L297.053184,8.13566104 C297.230389,7.82625996 297.557876,7.63566104 297.912286,7.63566104 L300.734838,7.63566104 Z M374.020093,7.63566104 C374.374502,7.63566104 374.70199,7.82625996 374.879194,8.13566104 L376.290471,10.5997627 C376.467675,10.9091637 376.467675,11.2903616 376.290471,11.5997627 L374.879194,14.0638643 C374.70199,14.3732653 374.374502,14.5638643 374.020093,14.5638643 L371.19754,14.5638643 C370.843131,14.5638643 370.515643,14.3732653 370.338438,14.0638643 L368.927162,11.5997627 C368.749958,11.2903616 368.749958,10.9091637 368.927162,10.5997627 L370.338438,8.13566104 C370.515643,7.82625996 370.843131,7.63566104 371.19754,7.63566104 L374.020093,7.63566104 Z M363.37322,7.63566104 C363.727629,7.63566104 364.055117,7.82625996 364.232322,8.13566104 L365.643598,10.5997627 C365.820803,10.9091637 365.820803,11.2903616 365.643598,11.5997627 L364.232322,14.0638643 C364.055117,14.3732653 363.727629,14.5638643 363.37322,14.5638643 L360.550668,14.5638643 C360.196258,14.5638643 359.868771,14.3732653 359.691566,14.0638643 L358.28029,11.5997627 C358.103085,11.2903616 358.103085,10.9091637 358.28029,10.5997627 L359.691566,8.13566104 C359.868771,7.82625996 360.196258,7.63566104 360.550668,7.63566104 L363.37322,7.63566104 Z M353.624419,7.63566104 C353.978829,7.63566104 354.306316,7.82625996 354.483521,8.13566104 L355.894797,10.5997627 C356.072002,10.9091637 356.072002,11.2903616 355.894797,11.5997627 L354.483521,14.0638643 C354.306316,14.3732653 353.978829,14.5638643 353.624419,14.5638643 L350.801867,14.5638643 C350.447458,14.5638643 350.11997,14.3732653 349.942765,14.0638643 L348.531489,11.5997627 C348.354284,11.2903616 348.354284,10.9091637 348.531489,10.5997627 L349.942765,8.13566104 C350.11997,7.82625996 350.447458,7.63566104 350.801867,7.63566104 L353.624419,7.63566104 Z M342.977547,7.63566104 C343.331956,7.63566104 343.659444,7.82625996 343.836649,8.13566104 L345.247925,10.5997627 C345.425129,10.9091637 345.425129,11.2903616 345.247925,11.5997627 L343.836649,14.0638643 C343.659444,14.3732653 343.331956,14.5638643 342.977547,14.5638643 L340.154994,14.5638643 C339.800585,14.5638643 339.473097,14.3732653 339.295892,14.0638643 L337.884616,11.5997627 C337.707412,11.2903616 337.707412,10.9091637 337.884616,10.5997627 L339.295892,8.13566104 C339.473097,7.82625996 339.800585,7.63566104 340.154994,7.63566104 L342.977547,7.63566104 Z M469.954234,7.63566104 C470.308643,7.63566104 470.636131,7.82625996 470.813336,8.13566104 L472.224612,10.5997627 C472.401816,10.9091637 472.401816,11.2903616 472.224612,11.5997627 L470.813336,14.0638643 C470.636131,14.3732653 470.308643,14.5638643 469.954234,14.5638643 L467.131681,14.5638643 C466.777272,14.5638643 466.449784,14.3732653 466.27258,14.0638643 L464.861303,11.5997627 C464.684099,11.2903616 464.684099,10.9091637 464.861303,10.5997627 L466.27258,8.13566104 C466.449784,7.82625996 466.777272,7.63566104 467.131681,7.63566104 L469.954234,7.63566104 Z M217.687982,7.63566104 C218.042391,7.63566104 218.369879,7.82625996 218.547083,8.13566104 L219.95836,10.5997627 C220.135564,10.9091637 220.135564,11.2903616 219.95836,11.5997627 L218.547083,14.0638643 C218.369879,14.3732653 218.042391,14.5638643 217.687982,14.5638643 L214.865429,14.5638643 C214.51102,14.5638643 214.183532,14.3732653 214.006327,14.0638643 L212.595051,11.5997627 C212.417847,11.2903616 212.417847,10.9091637 212.595051,10.5997627 L214.006327,8.13566104 C214.183532,7.82625996 214.51102,7.63566104 214.865429,7.63566104 L217.687982,7.63566104 Z M90.7112945,7.63566104 C91.0657039,7.63566104 91.3931917,7.82625996 91.5703964,8.13566104 L92.9816726,10.5997627 C93.1588772,10.9091637 93.1588772,11.2903616 92.9816726,11.5997627 L91.5703964,14.0638643 C91.3931917,14.3732653 91.0657039,14.5638643 90.7112945,14.5638643 L87.8887422,14.5638643 C87.5343328,14.5638643 87.206845,14.3732653 87.0296404,14.0638643 L85.6183642,11.5997627 C85.4411595,11.2903616 85.4411595,10.9091637 85.6183642,10.5997627 L87.0296404,8.13566104 C87.206845,7.82625996 87.5343328,7.63566104 87.8887422,7.63566104 L90.7112945,7.63566104 Z M101.358167,7.63566104 C101.712577,7.63566104 102.040064,7.82625996 102.217269,8.13566104 L103.628545,10.5997627 C103.80575,10.9091637 103.80575,11.2903616 103.628545,11.5997627 L102.217269,14.0638643 C102.040064,14.3732653 101.712577,14.5638643 101.358167,14.5638643 L98.5356148,14.5638643 C98.1812054,14.5638643 97.8537177,14.3732653 97.676513,14.0638643 L96.2652368,11.5997627 C96.0880321,11.2903616 96.0880321,10.9091637 96.2652368,10.5997627 L97.676513,8.13566104 C97.8537177,7.82625996 98.1812054,7.63566104 98.5356148,7.63566104 L101.358167,7.63566104 Z M111.106968,7.63566104 C111.461377,7.63566104 111.788865,7.82625996 111.96607,8.13566104 L113.377346,10.5997627 C113.554551,10.9091637 113.554551,11.2903616 113.377346,11.5997627 L111.96607,14.0638643 C111.788865,14.3732653 111.461377,14.5638643 111.106968,14.5638643 L108.284416,14.5638643 C107.930006,14.5638643 107.602518,14.3732653 107.425314,14.0638643 L106.014038,11.5997627 C105.836833,11.2903616 105.836833,10.9091637 106.014038,10.5997627 L107.425314,8.13566104 C107.602518,7.82625996 107.930006,7.63566104 108.284416,7.63566104 L111.106968,7.63566104 Z M121.75384,7.63566104 C122.10825,7.63566104 122.435738,7.82625996 122.612942,8.13566104 L124.024219,10.5997627 C124.201423,10.9091637 124.201423,11.2903616 124.024219,11.5997627 L122.612942,14.0638643 C122.435738,14.3732653 122.10825,14.5638643 121.75384,14.5638643 L118.931288,14.5638643 C118.576879,14.5638643 118.249391,14.3732653 118.072186,14.0638643 L116.66091,11.5997627 C116.483705,11.2903616 116.483705,10.9091637 116.66091,10.5997627 L118.072186,8.13566104 C118.249391,7.82625996 118.576879,7.63566104 118.931288,7.63566104 L121.75384,7.63566104 Z M48.468586,7.63566104 C48.8229954,7.63566104 49.1504832,7.82625996 49.3276878,8.13566104 L50.738964,10.5997627 C50.9161687,10.9091637 50.9161687,11.2903616 50.738964,11.5997627 L49.3276878,14.0638643 C49.1504832,14.3732653 48.8229954,14.5638643 48.468586,14.5638643 L45.6460337,14.5638643 C45.2916243,14.5638643 44.9641365,14.3732653 44.7869318,14.0638643 L43.3756556,11.5997627 C43.1984509,11.2903616 43.1984509,10.9091637 43.3756556,10.5997627 L44.7869318,8.13566104 C44.9641365,7.82625996 45.2916243,7.63566104 45.6460337,7.63566104 L48.468586,7.63566104 Z M59.1154586,7.63566104 C59.469868,7.63566104 59.7973558,7.82625996 59.9745605,8.13566104 L61.3858366,10.5997627 C61.5630413,10.9091637 61.5630413,11.2903616 61.3858366,11.5997627 L59.9745605,14.0638643 C59.7973558,14.3732653 59.469868,14.5638643 59.1154586,14.5638643 L56.2929063,14.5638643 C55.9384969,14.5638643 55.6110091,14.3732653 55.4338044,14.0638643 L54.0225283,11.5997627 C53.8453236,11.2903616 53.8453236,10.9091637 54.0225283,10.5997627 L55.4338044,8.13566104 C55.6110091,7.82625996 55.9384969,7.63566104 56.2929063,7.63566104 L59.1154586,7.63566104 Z M68.8642593,7.63566104 C69.2186687,7.63566104 69.5461565,7.82625996 69.7233612,8.13566104 L71.1346374,10.5997627 C71.311842,10.9091637 71.311842,11.2903616 71.1346374,11.5997627 L69.7233612,14.0638643 C69.5461565,14.3732653 69.2186687,14.5638643 68.8642593,14.5638643 L66.041707,14.5638643 C65.6872976,14.5638643 65.3598098,14.3732653 65.1826052,14.0638643 L63.771329,11.5997627 C63.5941243,11.2903616 63.5941243,10.9091637 63.771329,10.5997627 L65.1826052,8.13566104 C65.3598098,7.82625996 65.6872976,7.63566104 66.041707,7.63566104 L68.8642593,7.63566104 Z M79.511132,7.63566104 C79.8655413,7.63566104 80.1930291,7.82625996 80.3702338,8.13566104 L81.78151,10.5997627 C81.9587147,10.9091637 81.9587147,11.2903616 81.78151,11.5997627 L80.3702338,14.0638643 C80.1930291,14.3732653 79.8655413,14.5638643 79.511132,14.5638643 L76.6885796,14.5638643 C76.3341702,14.5638643 76.0066825,14.3732653 75.8294778,14.0638643 L74.4182016,11.5997627 C74.2409969,11.2903616 74.2409969,10.9091637 74.4182016,10.5997627 L75.8294778,8.13566104 C76.0066825,7.82625996 76.3341702,7.63566104 76.6885796,7.63566104 L79.511132,7.63566104 Z M206.487819,7.63566104 C206.842228,7.63566104 207.169716,7.82625996 207.346921,8.13566104 L208.758197,10.5997627 C208.935402,10.9091637 208.935402,11.2903616 208.758197,11.5997627 L207.346921,14.0638643 C207.169716,14.3732653 206.842228,14.5638643 206.487819,14.5638643 L203.665267,14.5638643 C203.310857,14.5638643 202.983369,14.3732653 202.806165,14.0638643 L201.394889,11.5997627 C201.217684,11.2903616 201.217684,10.9091637 201.394889,10.5997627 L202.806165,8.13566104 C202.983369,7.82625996 203.310857,7.63566104 203.665267,7.63566104 L206.487819,7.63566104 Z M195.840946,7.63566104 C196.195356,7.63566104 196.522844,7.82625996 196.700048,8.13566104 L198.111324,10.5997627 C198.288529,10.9091637 198.288529,11.2903616 198.111324,11.5997627 L196.700048,14.0638643 C196.522844,14.3732653 196.195356,14.5638643 195.840946,14.5638643 L193.018394,14.5638643 C192.663985,14.5638643 192.336497,14.3732653 192.159292,14.0638643 L190.748016,11.5997627 C190.570811,11.2903616 190.570811,10.9091637 190.748016,10.5997627 L192.159292,8.13566104 C192.336497,7.82625996 192.663985,7.63566104 193.018394,7.63566104 L195.840946,7.63566104 Z M186.092146,7.63566104 C186.446555,7.63566104 186.774043,7.82625996 186.951247,8.13566104 L188.362524,10.5997627 C188.539728,10.9091637 188.539728,11.2903616 188.362524,11.5997627 L186.951247,14.0638643 C186.774043,14.3732653 186.446555,14.5638643 186.092146,14.5638643 L183.269593,14.5638643 C182.915184,14.5638643 182.587696,14.3732653 182.410491,14.0638643 L180.999215,11.5997627 C180.822011,11.2903616 180.822011,10.9091637 180.999215,10.5997627 L182.410491,8.13566104 C182.587696,7.82625996 182.915184,7.63566104 183.269593,7.63566104 L186.092146,7.63566104 Z M175.445273,7.63566104 C175.799682,7.63566104 176.12717,7.82625996 176.304375,8.13566104 L177.715651,10.5997627 C177.892856,10.9091637 177.892856,11.2903616 177.715651,11.5997627 L176.304375,14.0638643 C176.12717,14.3732653 175.799682,14.5638643 175.445273,14.5638643 L172.622721,14.5638643 C172.268311,14.5638643 171.940824,14.3732653 171.763619,14.0638643 L170.352343,11.5997627 C170.175138,11.2903616 170.175138,10.9091637 170.352343,10.5997627 L171.763619,8.13566104 C171.940824,7.82625996 172.268311,7.63566104 172.622721,7.63566104 L175.445273,7.63566104 Z M248.730528,7.63566104 C249.084937,7.63566104 249.412425,7.82625996 249.589629,8.13566104 L251.000906,10.5997627 C251.17811,10.9091637 251.17811,11.2903616 251.000906,11.5997627 L249.589629,14.0638643 C249.412425,14.3732653 249.084937,14.5638643 248.730528,14.5638643 L245.907975,14.5638643 C245.553566,14.5638643 245.226078,14.3732653 245.048873,14.0638643 L243.637597,11.5997627 C243.460392,11.2903616 243.460392,10.9091637 243.637597,10.5997627 L245.048873,8.13566104 C245.226078,7.82625996 245.553566,7.63566104 245.907975,7.63566104 L248.730528,7.63566104 Z M238.083655,7.63566104 C238.438064,7.63566104 238.765552,7.82625996 238.942757,8.13566104 L240.354033,10.5997627 C240.531238,10.9091637 240.531238,11.2903616 240.354033,11.5997627 L238.942757,14.0638643 C238.765552,14.3732653 238.438064,14.5638643 238.083655,14.5638643 L235.261103,14.5638643 C234.906693,14.5638643 234.579205,14.3732653 234.402001,14.0638643 L232.990725,11.5997627 C232.81352,11.2903616 232.81352,10.9091637 232.990725,10.5997627 L234.402001,8.13566104 C234.579205,7.82625996 234.906693,7.63566104 235.261103,7.63566104 L238.083655,7.63566104 Z M228.334854,7.63566104 C228.689264,7.63566104 229.016751,7.82625996 229.193956,8.13566104 L230.605232,10.5997627 C230.782437,10.9091637 230.782437,11.2903616 230.605232,11.5997627 L229.193956,14.0638643 C229.016751,14.3732653 228.689264,14.5638643 228.334854,14.5638643 L225.512302,14.5638643 C225.157892,14.5638643 224.830405,14.3732653 224.6532,14.0638643 L223.241924,11.5997627 C223.064719,11.2903616 223.064719,10.9091637 223.241924,10.5997627 L224.6532,8.13566104 C224.830405,7.82625996 225.157892,7.63566104 225.512302,7.63566104 L228.334854,7.63566104 Z M269.139002,6.92351809 C269.493412,6.92351809 269.820899,7.11411702 269.998104,7.42351809 L271.40938,9.88761971 C271.586585,10.1970208 271.586585,10.5782186 271.40938,10.8876197 L269.998104,13.3517213 C269.820899,13.6611224 269.493412,13.8517213 269.139002,13.8517213 L266.31645,13.8517213 C265.96204,13.8517213 265.634553,13.6611224 265.457348,13.3517213 L264.046072,10.8876197 C263.868867,10.5782186 263.868867,10.1970208 264.046072,9.88761971 L265.457348,7.42351809 C265.634553,7.11411702 265.96204,6.92351809 266.31645,6.92351809 L269.139002,6.92351809 Z M278.887803,6.92351809 C279.242212,6.92351809 279.5697,7.11411702 279.746905,7.42351809 L281.158181,9.88761971 C281.335386,10.1970208 281.335386,10.5782186 281.158181,10.8876197 L279.746905,13.3517213 C279.5697,13.6611224 279.242212,13.8517213 278.887803,13.8517213 L276.065251,13.8517213 C275.710841,13.8517213 275.383353,13.6611224 275.206149,13.3517213 L273.794873,10.8876197 C273.617668,10.5782186 273.617668,10.1970208 273.794873,9.88761971 L275.206149,7.42351809 C275.383353,7.11411702 275.710841,6.92351809 276.065251,6.92351809 L278.887803,6.92351809 Z M289.534676,6.92351809 C289.889085,6.92351809 290.216573,7.11411702 290.393777,7.42351809 L291.805054,9.88761971 C291.982258,10.1970208 291.982258,10.5782186 291.805054,10.8876197 L290.393777,13.3517213 C290.216573,13.6611224 289.889085,13.8517213 289.534676,13.8517213 L286.712123,13.8517213 C286.357714,13.8517213 286.030226,13.6611224 285.853021,13.3517213 L284.441745,10.8876197 C284.26454,10.5782186 284.26454,10.1970208 284.441745,9.88761971 L285.853021,7.42351809 C286.030226,7.11411702 286.357714,6.92351809 286.712123,6.92351809 L289.534676,6.92351809 Z M416.511363,6.92351809 C416.865772,6.92351809 417.19326,7.11411702 417.370464,7.42351809 L418.781741,9.88761971 C418.958945,10.1970208 418.958945,10.5782186 418.781741,10.8876197 L417.370464,13.3517213 C417.19326,13.6611224 416.865772,13.8517213 416.511363,13.8517213 L413.68881,13.8517213 C413.334401,13.8517213 413.006913,13.6611224 412.829708,13.3517213 L411.418432,10.8876197 C411.241228,10.5782186 411.241228,10.1970208 411.418432,9.88761971 L412.829708,7.42351809 C413.006913,7.11411702 413.334401,6.92351809 413.68881,6.92351809 L416.511363,6.92351809 Z M405.86449,6.92351809 C406.218899,6.92351809 406.546387,7.11411702 406.723592,7.42351809 L408.134868,9.88761971 C408.312073,10.1970208 408.312073,10.5782186 408.134868,10.8876197 L406.723592,13.3517213 C406.546387,13.6611224 406.218899,13.8517213 405.86449,13.8517213 L403.041938,13.8517213 C402.687528,13.8517213 402.36004,13.6611224 402.182836,13.3517213 L400.77156,10.8876197 C400.594355,10.5782186 400.594355,10.1970208 400.77156,9.88761971 L402.182836,7.42351809 C402.36004,7.11411702 402.687528,6.92351809 403.041938,6.92351809 L405.86449,6.92351809 Z M396.115689,6.92351809 C396.470099,6.92351809 396.797586,7.11411702 396.974791,7.42351809 L398.386067,9.88761971 C398.563272,10.1970208 398.563272,10.5782186 398.386067,10.8876197 L396.974791,13.3517213 C396.797586,13.6611224 396.470099,13.8517213 396.115689,13.8517213 L393.293137,13.8517213 C392.938728,13.8517213 392.61124,13.6611224 392.434035,13.3517213 L391.022759,10.8876197 C390.845554,10.5782186 390.845554,10.1970208 391.022759,9.88761971 L392.434035,7.42351809 C392.61124,7.11411702 392.938728,6.92351809 393.293137,6.92351809 L396.115689,6.92351809 Z M385.468817,6.92351809 C385.823226,6.92351809 386.150714,7.11411702 386.327918,7.42351809 L387.739195,9.88761971 C387.916399,10.1970208 387.916399,10.5782186 387.739195,10.8876197 L386.327918,13.3517213 C386.150714,13.6611224 385.823226,13.8517213 385.468817,13.8517213 L382.646264,13.8517213 C382.291855,13.8517213 381.964367,13.6611224 381.787162,13.3517213 L380.375886,10.8876197 C380.198682,10.5782186 380.198682,10.1970208 380.375886,9.88761971 L381.787162,7.42351809 C381.964367,7.11411702 382.291855,6.92351809 382.646264,6.92351809 L385.468817,6.92351809 Z M258.49213,6.92351809 C258.846539,6.92351809 259.174027,7.11411702 259.351231,7.42351809 L260.762508,9.88761971 C260.939712,10.1970208 260.939712,10.5782186 260.762508,10.8876197 L259.351231,13.3517213 C259.174027,13.6611224 258.846539,13.8517213 258.49213,13.8517213 L255.669577,13.8517213 C255.315168,13.8517213 254.98768,13.6611224 254.810475,13.3517213 L253.399199,10.8876197 C253.221995,10.5782186 253.221995,10.1970208 253.399199,9.88761971 L254.810475,7.42351809 C254.98768,7.11411702 255.315168,6.92351809 255.669577,6.92351809 L258.49213,6.92351809 Z M6.22587745,6.92351809 C6.58028684,6.92351809 6.90777461,7.11411702 7.0849793,7.42351809 L8.49625547,9.88761971 C8.67346016,10.1970208 8.67346016,10.5782186 8.49625547,10.8876197 L7.0849793,13.3517213 C6.90777461,13.6611224 6.58028684,13.8517213 6.22587745,13.8517213 L3.40332512,13.8517213 C3.04891573,13.8517213 2.72142796,13.6611224 2.54422327,13.3517213 L1.1329471,10.8876197 C0.955742406,10.5782186 0.955742406,10.1970208 1.1329471,9.88761971 L2.54422327,7.42351809 C2.72142796,7.11411702 3.04891573,6.92351809 3.40332512,6.92351809 L6.22587745,6.92351809 Z M133.202564,6.92351809 C133.556974,6.92351809 133.884462,7.11411702 134.061666,7.42351809 L135.472943,9.88761971 C135.650147,10.1970208 135.650147,10.5782186 135.472943,10.8876197 L134.061666,13.3517213 C133.884462,13.6611224 133.556974,13.8517213 133.202564,13.8517213 L130.380012,13.8517213 C130.025603,13.8517213 129.698115,13.6611224 129.52091,13.3517213 L128.109634,10.8876197 C127.932429,10.5782186 127.932429,10.1970208 128.109634,9.88761971 L129.52091,7.42351809 C129.698115,7.11411702 130.025603,6.92351809 130.380012,6.92351809 L133.202564,6.92351809 Z M143.849437,6.92351809 C144.203846,6.92351809 144.531334,7.11411702 144.708539,7.42351809 L146.119815,9.88761971 C146.29702,10.1970208 146.29702,10.5782186 146.119815,10.8876197 L144.708539,13.3517213 C144.531334,13.6611224 144.203846,13.8517213 143.849437,13.8517213 L141.026885,13.8517213 C140.672475,13.8517213 140.344988,13.6611224 140.167783,13.3517213 L138.756507,10.8876197 C138.579302,10.5782186 138.579302,10.1970208 138.756507,9.88761971 L140.167783,7.42351809 C140.344988,7.11411702 140.672475,6.92351809 141.026885,6.92351809 L143.849437,6.92351809 Z M153.598238,6.92351809 C153.952647,6.92351809 154.280135,7.11411702 154.45734,7.42351809 L155.868616,9.88761971 C156.045821,10.1970208 156.045821,10.5782186 155.868616,10.8876197 L154.45734,13.3517213 C154.280135,13.6611224 153.952647,13.8517213 153.598238,13.8517213 L150.775685,13.8517213 C150.421276,13.8517213 150.093788,13.6611224 149.916584,13.3517213 L148.505307,10.8876197 C148.328103,10.5782186 148.328103,10.1970208 148.505307,9.88761971 L149.916584,7.42351809 C150.093788,7.11411702 150.421276,6.92351809 150.775685,6.92351809 L153.598238,6.92351809 Z M164.24511,6.92351809 C164.59952,6.92351809 164.927008,7.11411702 165.104212,7.42351809 L166.515488,9.88761971 C166.692693,10.1970208 166.692693,10.5782186 166.515488,10.8876197 L165.104212,13.3517213 C164.927008,13.6611224 164.59952,13.8517213 164.24511,13.8517213 L161.422558,13.8517213 C161.068149,13.8517213 160.740661,13.6611224 160.563456,13.3517213 L159.15218,10.8876197 C158.974975,10.5782186 158.974975,10.1970208 159.15218,9.88761971 L160.563456,7.42351809 C160.740661,7.11411702 161.068149,6.92351809 161.422558,6.92351809 L164.24511,6.92351809 Z M37.2684234,6.92351809 C37.6228328,6.92351809 37.9503206,7.11411702 38.1275253,7.42351809 L39.5388014,9.88761971 C39.7160061,10.1970208 39.7160061,10.5782186 39.5388014,10.8876197 L38.1275253,13.3517213 C37.9503206,13.6611224 37.6228328,13.8517213 37.2684234,13.8517213 L34.4458711,13.8517213 C34.0914617,13.8517213 33.7639739,13.6611224 33.5867692,13.3517213 L32.1754931,10.8876197 C31.9982884,10.5782186 31.9982884,10.1970208 32.1754931,9.88761971 L33.5867692,7.42351809 C33.7639739,7.11411702 34.0914617,6.92351809 34.4458711,6.92351809 L37.2684234,6.92351809 Z M26.6215508,6.92351809 C26.9759602,6.92351809 27.303448,7.11411702 27.4806526,7.42351809 L28.8919288,9.88761971 C29.0691335,10.1970208 29.0691335,10.5782186 28.8919288,10.8876197 L27.4806526,13.3517213 C27.303448,13.6611224 26.9759602,13.8517213 26.6215508,13.8517213 L23.7989985,13.8517213 C23.4445891,13.8517213 23.1171013,13.6611224 22.9398966,13.3517213 L21.5286204,10.8876197 C21.3514157,10.5782186 21.3514157,10.1970208 21.5286204,9.88761971 L22.9398966,7.42351809 C23.1171013,7.11411702 23.4445891,6.92351809 23.7989985,6.92351809 L26.6215508,6.92351809 Z M16.8727501,6.92351809 C17.2271594,6.92351809 17.5546472,7.11411702 17.7318519,7.42351809 L19.1431281,9.88761971 C19.3203328,10.1970208 19.3203328,10.5782186 19.1431281,10.8876197 L17.7318519,13.3517213 C17.5546472,13.6611224 17.2271594,13.8517213 16.8727501,13.8517213 L14.0501977,13.8517213 C13.6957883,13.8517213 13.3683006,13.6611224 13.1910959,13.3517213 L11.7798197,10.8876197 C11.602615,10.5782186 11.602615,10.1970208 11.7798197,9.88761971 L13.1910959,7.42351809 C13.3683006,7.11411702 13.6957883,6.92351809 14.0501977,6.92351809 L16.8727501,6.92351809 Z M201.261365,0.712142944 C201.615774,0.712142944 201.943262,0.902741868 202.120466,1.21214294 L203.531743,3.67624456 C203.708947,3.98564564 203.708947,4.36684348 203.531743,4.67624456 L202.120466,7.14034617 C201.943262,7.44974725 201.615774,7.64034617 201.261365,7.64034617 L198.438812,7.64034617 C198.084403,7.64034617 197.756915,7.44974725 197.57971,7.14034617 L196.168434,4.67624456 C195.991229,4.36684348 195.991229,3.98564564 196.168434,3.67624456 L197.57971,1.21214294 C197.756915,0.902741868 198.084403,0.712142944 198.438812,0.712142944 L201.261365,0.712142944 Z M180.865691,0.712142944 C181.220101,0.712142944 181.547588,0.902741868 181.724793,1.21214294 L183.136069,3.67624456 C183.313274,3.98564564 183.313274,4.36684348 183.136069,4.67624456 L181.724793,7.14034617 C181.547588,7.44974725 181.220101,7.64034617 180.865691,7.64034617 L178.043139,7.64034617 C177.688729,7.64034617 177.361242,7.44974725 177.184037,7.14034617 L175.772761,4.67624456 C175.595556,4.36684348 175.595556,3.98564564 175.772761,3.67624456 L177.184037,1.21214294 C177.361242,0.902741868 177.688729,0.712142944 178.043139,0.712142944 L180.865691,0.712142944 Z M233.250298,0.712142944 C233.604708,0.712142944 233.932195,0.902741868 234.1094,1.21214294 L235.520676,3.67624456 C235.697881,3.98564564 235.697881,4.36684348 235.520676,4.67624456 L234.1094,7.14034617 C233.932195,7.44974725 233.604708,7.64034617 233.250298,7.64034617 L230.427746,7.64034617 C230.073337,7.64034617 229.745849,7.44974725 229.568644,7.14034617 L228.157368,4.67624456 C227.980163,4.36684348 227.980163,3.98564564 228.157368,3.67624456 L229.568644,1.21214294 C229.745849,0.902741868 230.073337,0.712142944 230.427746,0.712142944 L233.250298,0.712142944 Z M116.527386,0.712142944 C116.881795,0.712142944 117.209283,0.902741868 117.386488,1.21214294 L118.797764,3.67624456 C118.974969,3.98564564 118.974969,4.36684348 118.797764,4.67624456 L117.386488,7.14034617 C117.209283,7.44974725 116.881795,7.64034617 116.527386,7.64034617 L113.704834,7.64034617 C113.350424,7.64034617 113.022937,7.44974725 112.845732,7.14034617 L111.434456,4.67624456 C111.257251,4.36684348 111.257251,3.98564564 111.434456,3.67624456 L112.845732,1.21214294 C113.022937,0.902741868 113.350424,0.712142944 113.704834,0.712142944 L116.527386,0.712142944 Z M96.1317127,0.712142944 C96.4861221,0.712142944 96.8136098,0.902741868 96.9908145,1.21214294 L98.4020907,3.67624456 C98.5792954,3.98564564 98.5792954,4.36684348 98.4020907,4.67624456 L96.9908145,7.14034617 C96.8136098,7.44974725 96.4861221,7.64034617 96.1317127,7.64034617 L93.3091603,7.64034617 C92.9547509,7.64034617 92.6272632,7.44974725 92.4500585,7.14034617 L91.0387823,4.67624456 C90.8615776,4.36684348 90.8615776,3.98564564 91.0387823,3.67624456 L92.4500585,1.21214294 C92.6272632,0.902741868 92.9547509,0.712142944 93.3091603,0.712142944 L96.1317127,0.712142944 Z M106.273611,0.712142944 C106.628021,0.712142944 106.955508,0.902741868 107.132713,1.21214294 L108.543989,3.67624456 C108.721194,3.98564564 108.721194,4.36684348 108.543989,4.67624456 L107.132713,7.14034617 C106.955508,7.44974725 106.628021,7.64034617 106.273611,7.64034617 L103.451059,7.64034617 C103.09665,7.64034617 102.769162,7.44974725 102.591957,7.14034617 L101.180681,4.67624456 C101.003476,4.36684348 101.003476,3.98564564 101.180681,3.67624456 L102.591957,1.21214294 C102.769162,0.902741868 103.09665,0.712142944 103.451059,0.712142944 L106.273611,0.712142944 Z M53.8890041,0.712142944 C54.2434135,0.712142944 54.5709013,0.902741868 54.748106,1.21214294 L56.1593821,3.67624456 C56.3365868,3.98564564 56.3365868,4.36684348 56.1593821,4.67624456 L54.748106,7.14034617 C54.5709013,7.44974725 54.2434135,7.64034617 53.8890041,7.64034617 L51.0664518,7.64034617 C50.7120424,7.64034617 50.3845546,7.44974725 50.2073499,7.14034617 L48.7960738,4.67624456 C48.6188691,4.36684348 48.6188691,3.98564564 48.7960738,3.67624456 L50.2073499,1.21214294 C50.3845546,0.902741868 50.7120424,0.712142944 51.0664518,0.712142944 L53.8890041,0.712142944 Z M74.2846775,0.712142944 C74.6390869,0.712142944 74.9665746,0.902741868 75.1437793,1.21214294 L76.5550555,3.67624456 C76.7322602,3.98564564 76.7322602,4.36684348 76.5550555,4.67624456 L75.1437793,7.14034617 C74.9665746,7.44974725 74.6390869,7.64034617 74.2846775,7.64034617 L71.4621251,7.64034617 C71.1077157,7.64034617 70.780228,7.44974725 70.6030233,7.14034617 L69.1917471,4.67624456 C69.0145424,4.36684348 69.0145424,3.98564564 69.1917471,3.67624456 L70.6030233,1.21214294 C70.780228,0.902741868 71.1077157,0.712142944 71.4621251,0.712142944 L74.2846775,0.712142944 Z M191.00759,0.712142944 C191.361999,0.712142944 191.689487,0.902741868 191.866692,1.21214294 L193.277968,3.67624456 C193.455172,3.98564564 193.455172,4.36684348 193.277968,4.67624456 L191.866692,7.14034617 C191.689487,7.44974725 191.361999,7.64034617 191.00759,7.64034617 L188.185037,7.64034617 C187.830628,7.64034617 187.50314,7.44974725 187.325936,7.14034617 L185.914659,4.67624456 C185.737455,4.36684348 185.737455,3.98564564 185.914659,3.67624456 L187.325936,1.21214294 C187.50314,0.902741868 187.830628,0.712142944 188.185037,0.712142944 L191.00759,0.712142944 Z M243.504073,0.712142944 C243.858482,0.712142944 244.18597,0.902741868 244.363175,1.21214294 L245.774451,3.67624456 C245.951656,3.98564564 245.951656,4.36684348 245.774451,4.67624456 L244.363175,7.14034617 C244.18597,7.44974725 243.858482,7.64034617 243.504073,7.64034617 L240.681521,7.64034617 C240.327111,7.64034617 239.999624,7.44974725 239.822419,7.14034617 L238.411143,4.67624456 C238.233938,4.36684348 238.233938,3.98564564 238.411143,3.67624456 L239.822419,1.21214294 C239.999624,0.902741868 240.327111,0.712142944 240.681521,0.712142944 L243.504073,0.712142944 Z M223.1084,0.712142944 C223.462809,0.712142944 223.790297,0.902741868 223.967502,1.21214294 L225.378778,3.67624456 C225.555982,3.98564564 225.555982,4.36684348 225.378778,4.67624456 L223.967502,7.14034617 C223.790297,7.44974725 223.462809,7.64034617 223.1084,7.64034617 L220.285847,7.64034617 C219.931438,7.64034617 219.60395,7.44974725 219.426746,7.14034617 L218.015469,4.67624456 C217.838265,4.36684348 217.838265,3.98564564 218.015469,3.67624456 L219.426746,1.21214294 C219.60395,0.902741868 219.931438,0.712142944 220.285847,0.712142944 L223.1084,0.712142944 Z M316.297155,0.712142944 C316.651564,0.712142944 316.979052,0.902741868 317.156257,1.21214294 L318.567533,3.67624456 C318.744738,3.98564564 318.744738,4.36684348 318.567533,4.67624456 L317.156257,7.14034617 C316.979052,7.44974725 316.651564,7.64034617 316.297155,7.64034617 L313.474603,7.64034617 C313.120193,7.64034617 312.792705,7.44974725 312.615501,7.14034617 L311.204225,4.67624456 C311.02702,4.36684348 311.02702,3.98564564 311.204225,3.67624456 L312.615501,1.21214294 C312.792705,0.902741868 313.120193,0.712142944 313.474603,0.712142944 L316.297155,0.712142944 Z M475.374652,0.712142944 C475.729061,0.712142944 476.056549,0.902741868 476.233754,1.21214294 L477.64503,3.67624456 C477.822235,3.98564564 477.822235,4.36684348 477.64503,4.67624456 L476.233754,7.14034617 C476.056549,7.44974725 475.729061,7.64034617 475.374652,7.64034617 L472.552099,7.64034617 C472.19769,7.64034617 471.870202,7.44974725 471.692998,7.14034617 L470.281721,4.67624456 C470.104517,4.36684348 470.104517,3.98564564 470.281721,3.67624456 L471.692998,1.21214294 C471.870202,0.902741868 472.19769,0.712142944 472.552099,0.712142944 L475.374652,0.712142944 Z M495.770325,0.712142944 C496.124735,0.712142944 496.452222,0.902741868 496.629427,1.21214294 L498.040703,3.67624456 C498.217908,3.98564564 498.217908,4.36684348 498.040703,4.67624456 L496.629427,7.14034617 C496.452222,7.44974725 496.124735,7.64034617 495.770325,7.64034617 L492.947773,7.64034617 C492.593363,7.64034617 492.265876,7.44974725 492.088671,7.14034617 L490.677395,4.67624456 C490.50019,4.36684348 490.50019,3.98564564 490.677395,3.67624456 L492.088671,1.21214294 C492.265876,0.902741868 492.593363,0.712142944 492.947773,0.712142944 L495.770325,0.712142944 Z M443.273842,0.712142944 C443.628251,0.712142944 443.955739,0.902741868 444.132944,1.21214294 L445.54422,3.67624456 C445.721425,3.98564564 445.721425,4.36684348 445.54422,4.67624456 L444.132944,7.14034617 C443.955739,7.44974725 443.628251,7.64034617 443.273842,7.64034617 L440.45129,7.64034617 C440.09688,7.64034617 439.769392,7.44974725 439.592188,7.14034617 L438.180912,4.67624456 C438.003707,4.36684348 438.003707,3.98564564 438.180912,3.67624456 L439.592188,1.21214294 C439.769392,0.902741868 440.09688,0.712142944 440.45129,0.712142944 L443.273842,0.712142944 Z M453.527617,0.712142944 C453.882026,0.712142944 454.209514,0.902741868 454.386718,1.21214294 L455.797995,3.67624456 C455.975199,3.98564564 455.975199,4.36684348 455.797995,4.67624456 L454.386718,7.14034617 C454.209514,7.44974725 453.882026,7.64034617 453.527617,7.64034617 L450.705064,7.64034617 C450.350655,7.64034617 450.023167,7.44974725 449.845962,7.14034617 L448.434686,4.67624456 C448.257482,4.36684348 448.257482,3.98564564 448.434686,3.67624456 L449.845962,1.21214294 C450.023167,0.902741868 450.350655,0.712142944 450.705064,0.712142944 L453.527617,0.712142944 Z M433.131943,0.712142944 C433.486353,0.712142944 433.81384,0.902741868 433.991045,1.21214294 L435.402321,3.67624456 C435.579526,3.98564564 435.579526,4.36684348 435.402321,4.67624456 L433.991045,7.14034617 C433.81384,7.44974725 433.486353,7.64034617 433.131943,7.64034617 L430.309391,7.64034617 C429.954982,7.64034617 429.627494,7.44974725 429.450289,7.14034617 L428.039013,4.67624456 C427.861808,4.36684348 427.861808,3.98564564 428.039013,3.67624456 L429.450289,1.21214294 C429.627494,0.902741868 429.954982,0.712142944 430.309391,0.712142944 L433.131943,0.712142944 Z M485.51655,0.712142944 C485.87096,0.712142944 486.198448,0.902741868 486.375652,1.21214294 L487.786928,3.67624456 C487.964133,3.98564564 487.964133,4.36684348 487.786928,4.67624456 L486.375652,7.14034617 C486.198448,7.44974725 485.87096,7.64034617 485.51655,7.64034617 L482.693998,7.64034617 C482.339589,7.64034617 482.012101,7.44974725 481.834896,7.14034617 L480.42362,4.67624456 C480.246415,4.36684348 480.246415,3.98564564 480.42362,3.67624456 L481.834896,1.21214294 C482.012101,0.902741868 482.339589,0.712142944 482.693998,0.712142944 L485.51655,0.712142944 Z M368.793638,0.712142944 C369.148048,0.712142944 369.475535,0.902741868 369.65274,1.21214294 L371.064016,3.67624456 C371.241221,3.98564564 371.241221,4.36684348 371.064016,4.67624456 L369.65274,7.14034617 C369.475535,7.44974725 369.148048,7.64034617 368.793638,7.64034617 L365.971086,7.64034617 C365.616676,7.64034617 365.289189,7.44974725 365.111984,7.14034617 L363.700708,4.67624456 C363.523503,4.36684348 363.523503,3.98564564 363.700708,3.67624456 L365.111984,1.21214294 C365.289189,0.902741868 365.616676,0.712142944 365.971086,0.712142944 L368.793638,0.712142944 Z M348.397965,0.712142944 C348.752374,0.712142944 349.079862,0.902741868 349.257067,1.21214294 L350.668343,3.67624456 C350.845548,3.98564564 350.845548,4.36684348 350.668343,4.67624456 L349.257067,7.14034617 C349.079862,7.44974725 348.752374,7.64034617 348.397965,7.64034617 L345.575412,7.64034617 C345.221003,7.64034617 344.893515,7.44974725 344.716311,7.14034617 L343.305034,4.67624456 C343.12783,4.36684348 343.12783,3.98564564 343.305034,3.67624456 L344.716311,1.21214294 C344.893515,0.902741868 345.221003,0.712142944 345.575412,0.712142944 L348.397965,0.712142944 Z M358.539863,0.712142944 C358.894273,0.712142944 359.221761,0.902741868 359.398965,1.21214294 L360.810241,3.67624456 C360.987446,3.98564564 360.987446,4.36684348 360.810241,4.67624456 L359.398965,7.14034617 C359.221761,7.44974725 358.894273,7.64034617 358.539863,7.64034617 L355.717311,7.64034617 C355.362902,7.64034617 355.035414,7.44974725 354.858209,7.14034617 L353.446933,4.67624456 C353.269728,4.36684348 353.269728,3.98564564 353.446933,3.67624456 L354.858209,1.21214294 C355.035414,0.902741868 355.362902,0.712142944 355.717311,0.712142944 L358.539863,0.712142944 Z M306.155256,0.712142944 C306.509666,0.712142944 306.837153,0.902741868 307.014358,1.21214294 L308.425634,3.67624456 C308.602839,3.98564564 308.602839,4.36684348 308.425634,4.67624456 L307.014358,7.14034617 C306.837153,7.44974725 306.509666,7.64034617 306.155256,7.64034617 L303.332704,7.64034617 C302.978295,7.64034617 302.650807,7.44974725 302.473602,7.14034617 L301.062326,4.67624456 C300.885121,4.36684348 300.885121,3.98564564 301.062326,3.67624456 L302.473602,1.21214294 C302.650807,0.902741868 302.978295,0.712142944 303.332704,0.712142944 L306.155256,0.712142944 Z M326.55093,0.712142944 C326.905339,0.712142944 327.232827,0.902741868 327.410031,1.21214294 L328.821308,3.67624456 C328.998512,3.98564564 328.998512,4.36684348 328.821308,4.67624456 L327.410031,7.14034617 C327.232827,7.44974725 326.905339,7.64034617 326.55093,7.64034617 L323.728377,7.64034617 C323.373968,7.64034617 323.04648,7.44974725 322.869275,7.14034617 L321.457999,4.67624456 C321.280795,4.36684348 321.280795,3.98564564 321.457999,3.67624456 L322.869275,1.21214294 C323.04648,0.902741868 323.373968,0.712142944 323.728377,0.712142944 L326.55093,0.712142944 Z M64.0309028,0.712142944 C64.3853121,0.712142944 64.7127999,0.902741868 64.8900046,1.21214294 L66.3012808,3.67624456 C66.4784855,3.98564564 66.4784855,4.36684348 66.3012808,4.67624456 L64.8900046,7.14034617 C64.7127999,7.44974725 64.3853121,7.64034617 64.0309028,7.64034617 L61.2083504,7.64034617 C60.853941,7.64034617 60.5264533,7.44974725 60.3492486,7.14034617 L58.9379724,4.67624456 C58.7607677,4.36684348 58.7607677,3.98564564 58.9379724,3.67624456 L60.3492486,1.21214294 C60.5264533,0.902741868 60.853941,0.712142944 61.2083504,0.712142944 L64.0309028,0.712142944 Z M253.93197,2.84217094e-14 C254.28638,2.84217094e-14 254.613867,0.190598923 254.791072,0.5 L256.202348,2.96410162 C256.379553,3.27350269 256.379553,3.65470054 256.202348,3.96410162 L254.791072,6.42820323 C254.613867,6.73760431 254.28638,6.92820323 253.93197,6.92820323 L251.109418,6.92820323 C250.755009,6.92820323 250.427521,6.73760431 250.250316,6.42820323 L248.83904,3.96410162 C248.661835,3.65470054 248.661835,3.27350269 248.83904,2.96410162 L250.250316,0.5 C250.427521,0.190598923 250.755009,2.84217094e-14 251.109418,2.84217094e-14 L253.93197,2.84217094e-14 Z M32.0419689,2.55795385e-13 C32.3963783,2.55795385e-13 32.7238661,0.190598923 32.9010708,0.5 L34.3123469,2.96410162 C34.4895516,3.27350269 34.4895516,3.65470054 34.3123469,3.96410162 L32.9010708,6.42820323 C32.7238661,6.73760431 32.3963783,6.92820323 32.0419689,6.92820323 L29.2194166,6.92820323 C28.8650072,6.92820323 28.5375194,6.73760431 28.3603147,6.42820323 L26.9490386,3.96410162 C26.7718339,3.65470054 26.7718339,3.27350269 26.9490386,2.96410162 L28.3603147,0.5 C28.5375194,0.190598923 28.8650072,2.55795385e-13 29.2194166,2.55795385e-13 L32.0419689,2.55795385e-13 Z M21.7881942,2.84217094e-14 C22.1426036,2.84217094e-14 22.4700914,0.190598923 22.6472961,0.5 L24.0585722,2.96410162 C24.2357769,3.27350269 24.2357769,3.65470054 24.0585722,3.96410162 L22.6472961,6.42820323 C22.4700914,6.73760431 22.1426036,6.92820323 21.7881942,6.92820323 L18.9656419,6.92820323 C18.6112325,6.92820323 18.2837447,6.73760431 18.10654,6.42820323 L16.6952639,3.96410162 C16.5180592,3.65470054 16.5180592,3.27350269 16.6952639,2.96410162 L18.10654,0.5 C18.2837447,0.190598923 18.6112325,2.84217094e-14 18.9656419,2.84217094e-14 L21.7881942,2.84217094e-14 Z M11.6462956,2.84217094e-14 C12.000705,2.84217094e-14 12.3281927,0.190598923 12.5053974,0.5 L13.9166736,2.96410162 C14.0938783,3.27350269 14.0938783,3.65470054 13.9166736,3.96410162 L12.5053974,6.42820323 C12.3281927,6.73760431 12.000705,6.92820323 11.6462956,6.92820323 L8.82374325,6.92820323 C8.46933386,6.92820323 8.14184609,6.73760431 7.9646414,6.42820323 L6.55336523,3.96410162 C6.37616054,3.65470054 6.37616054,3.27350269 6.55336523,2.96410162 L7.9646414,0.5 C8.14184609,0.190598923 8.46933386,2.84217094e-14 8.82374325,2.84217094e-14 L11.6462956,2.84217094e-14 Z M43.0036615,2.84217094e-14 C43.3580709,2.84217094e-14 43.6855587,0.190598923 43.8627634,0.5 L45.2740396,2.96410162 C45.4512442,3.27350269 45.4512442,3.65470054 45.2740396,3.96410162 L43.8627634,6.42820323 C43.6855587,6.73760431 43.3580709,6.92820323 43.0036615,6.92820323 L40.1811092,6.92820323 C39.8266998,6.92820323 39.499212,6.73760431 39.3220074,6.42820323 L37.9107312,3.96410162 C37.7335265,3.65470054 37.7335265,3.27350269 37.9107312,2.96410162 L39.3220074,0.5 C39.499212,0.190598923 39.8266998,2.84217094e-14 40.1811092,2.84217094e-14 L43.0036615,2.84217094e-14 Z M84.667887,2.55795385e-13 C85.0222964,2.55795385e-13 85.3497841,0.190598923 85.5269888,0.5 L86.938265,2.96410162 C87.1154697,3.27350269 87.1154697,3.65470054 86.938265,3.96410162 L85.5269888,6.42820323 C85.3497841,6.73760431 85.0222964,6.92820323 84.667887,6.92820323 L81.8453346,6.92820323 C81.4909252,6.92820323 81.1634375,6.73760431 80.9862328,6.42820323 L79.5749566,3.96410162 C79.3977519,3.65470054 79.3977519,3.27350269 79.5749566,2.96410162 L80.9862328,0.5 C81.1634375,0.190598923 81.4909252,2.55795385e-13 81.8453346,2.55795385e-13 L84.667887,2.55795385e-13 Z M211.644574,2.55795385e-13 C211.998983,2.55795385e-13 212.326471,0.190598923 212.503676,0.5 L213.914952,2.96410162 C214.092157,3.27350269 214.092157,3.65470054 213.914952,3.96410162 L212.503676,6.42820323 C212.326471,6.73760431 211.998983,6.92820323 211.644574,6.92820323 L208.822022,6.92820323 C208.467612,6.92820323 208.140125,6.73760431 207.96292,6.42820323 L206.551644,3.96410162 C206.374439,3.65470054 206.374439,3.27350269 206.551644,2.96410162 L207.96292,0.5 C208.140125,0.190598923 208.467612,2.55795385e-13 208.822022,2.55795385e-13 L211.644574,2.55795385e-13 Z M169.980349,2.84217094e-14 C170.334758,2.84217094e-14 170.662246,0.190598923 170.83945,0.5 L172.250727,2.96410162 C172.427931,3.27350269 172.427931,3.65470054 172.250727,3.96410162 L170.83945,6.42820323 C170.662246,6.73760431 170.334758,6.92820323 169.980349,6.92820323 L167.157796,6.92820323 C166.803387,6.92820323 166.475899,6.73760431 166.298694,6.42820323 L164.887418,3.96410162 C164.710214,3.65470054 164.710214,3.27350269 164.887418,2.96410162 L166.298694,0.5 C166.475899,0.190598923 166.803387,2.84217094e-14 167.157796,2.84217094e-14 L169.980349,2.84217094e-14 Z M138.622983,2.84217094e-14 C138.977392,2.84217094e-14 139.30488,0.190598923 139.482084,0.5 L140.893361,2.96410162 C141.070565,3.27350269 141.070565,3.65470054 140.893361,3.96410162 L139.482084,6.42820323 C139.30488,6.73760431 138.977392,6.92820323 138.622983,6.92820323 L135.80043,6.92820323 C135.446021,6.92820323 135.118533,6.73760431 134.941328,6.42820323 L133.530052,3.96410162 C133.352848,3.65470054 133.352848,3.27350269 133.530052,2.96410162 L134.941328,0.5 C135.118533,0.190598923 135.446021,2.84217094e-14 135.80043,2.84217094e-14 L138.622983,2.84217094e-14 Z M148.764881,2.84217094e-14 C149.119291,2.84217094e-14 149.446778,0.190598923 149.623983,0.5 L151.035259,2.96410162 C151.212464,3.27350269 151.212464,3.65470054 151.035259,3.96410162 L149.623983,6.42820323 C149.446778,6.73760431 149.119291,6.92820323 148.764881,6.92820323 L145.942329,6.92820323 C145.58792,6.92820323 145.260432,6.73760431 145.083227,6.42820323 L143.671951,3.96410162 C143.494746,3.65470054 143.494746,3.27350269 143.671951,2.96410162 L145.083227,0.5 C145.260432,0.190598923 145.58792,2.84217094e-14 145.942329,2.84217094e-14 L148.764881,2.84217094e-14 Z M159.018656,2.55795385e-13 C159.373065,2.55795385e-13 159.700553,0.190598923 159.877758,0.5 L161.289034,2.96410162 C161.466239,3.27350269 161.466239,3.65470054 161.289034,3.96410162 L159.877758,6.42820323 C159.700553,6.73760431 159.373065,6.92820323 159.018656,6.92820323 L156.196104,6.92820323 C155.841694,6.92820323 155.514206,6.73760431 155.337002,6.42820323 L153.925726,3.96410162 C153.748521,3.65470054 153.748521,3.27350269 153.925726,2.96410162 L155.337002,0.5 C155.514206,0.190598923 155.841694,2.55795385e-13 156.196104,2.55795385e-13 L159.018656,2.55795385e-13 Z M127.80275,2.84217094e-14 C128.157159,2.84217094e-14 128.484647,0.190598923 128.661852,0.5 L130.073128,2.96410162 C130.250333,3.27350269 130.250333,3.65470054 130.073128,3.96410162 L128.661852,6.42820323 C128.484647,6.73760431 128.157159,6.92820323 127.80275,6.92820323 L124.980198,6.92820323 C124.625788,6.92820323 124.298301,6.73760431 124.121096,6.42820323 L122.70982,3.96410162 C122.532615,3.65470054 122.532615,3.27350269 122.70982,2.96410162 L124.121096,0.5 C124.298301,0.190598923 124.625788,2.84217094e-14 124.980198,2.84217094e-14 L127.80275,2.84217094e-14 Z M380.069002,2.84217094e-14 C380.423412,2.84217094e-14 380.750899,0.190598923 380.928104,0.5 L382.33938,2.96410162 C382.516585,3.27350269 382.516585,3.65470054 382.33938,3.96410162 L380.928104,6.42820323 C380.750899,6.73760431 380.423412,6.92820323 380.069002,6.92820323 L377.24645,6.92820323 C376.89204,6.92820323 376.564553,6.73760431 376.387348,6.42820323 L374.976072,3.96410162 C374.798867,3.65470054 374.798867,3.27350269 374.976072,2.96410162 L376.387348,0.5 C376.564553,0.190598923 376.89204,2.84217094e-14 377.24645,2.84217094e-14 L380.069002,2.84217094e-14 Z M411.284908,2.55795385e-13 C411.639317,2.55795385e-13 411.966805,0.190598923 412.14401,0.5 L413.555286,2.96410162 C413.732491,3.27350269 413.732491,3.65470054 413.555286,3.96410162 L412.14401,6.42820323 C411.966805,6.73760431 411.639317,6.92820323 411.284908,6.92820323 L408.462356,6.92820323 C408.107946,6.92820323 407.780459,6.73760431 407.603254,6.42820323 L406.191978,3.96410162 C406.014773,3.65470054 406.014773,3.27350269 406.191978,2.96410162 L407.603254,0.5 C407.780459,0.190598923 408.107946,2.55795385e-13 408.462356,2.55795385e-13 L411.284908,2.55795385e-13 Z M401.031133,2.84217094e-14 C401.385543,2.84217094e-14 401.713031,0.190598923 401.890235,0.5 L403.301511,2.96410162 C403.478716,3.27350269 403.478716,3.65470054 403.301511,3.96410162 L401.890235,6.42820323 C401.713031,6.73760431 401.385543,6.92820323 401.031133,6.92820323 L398.208581,6.92820323 C397.854172,6.92820323 397.526684,6.73760431 397.349479,6.42820323 L395.938203,3.96410162 C395.760998,3.65470054 395.760998,3.27350269 395.938203,2.96410162 L397.349479,0.5 C397.526684,0.190598923 397.854172,2.84217094e-14 398.208581,2.84217094e-14 L401.031133,2.84217094e-14 Z M390.889235,2.84217094e-14 C391.243644,2.84217094e-14 391.571132,0.190598923 391.748337,0.5 L393.159613,2.96410162 C393.336817,3.27350269 393.336817,3.65470054 393.159613,3.96410162 L391.748337,6.42820323 C391.571132,6.73760431 391.243644,6.92820323 390.889235,6.92820323 L388.066682,6.92820323 C387.712273,6.92820323 387.384785,6.73760431 387.207581,6.42820323 L385.796304,3.96410162 C385.6191,3.65470054 385.6191,3.27350269 385.796304,2.96410162 L387.207581,0.5 C387.384785,0.190598923 387.712273,2.84217094e-14 388.066682,2.84217094e-14 L390.889235,2.84217094e-14 Z M422.246601,2.84217094e-14 C422.60101,2.84217094e-14 422.928498,0.190598923 423.105703,0.5 L424.516979,2.96410162 C424.694183,3.27350269 424.694183,3.65470054 424.516979,3.96410162 L423.105703,6.42820323 C422.928498,6.73760431 422.60101,6.92820323 422.246601,6.92820323 L419.424048,6.92820323 C419.069639,6.92820323 418.742151,6.73760431 418.564947,6.42820323 L417.15367,3.96410162 C416.976466,3.65470054 416.976466,3.27350269 417.15367,2.96410162 L418.564947,0.5 C418.742151,0.190598923 419.069639,2.84217094e-14 419.424048,2.84217094e-14 L422.246601,2.84217094e-14 Z M463.910826,2.55795385e-13 C464.265236,2.55795385e-13 464.592723,0.190598923 464.769928,0.5 L466.181204,2.96410162 C466.358409,3.27350269 466.358409,3.65470054 466.181204,3.96410162 L464.769928,6.42820323 C464.592723,6.73760431 464.265236,6.92820323 463.910826,6.92820323 L461.088274,6.92820323 C460.733864,6.92820323 460.406377,6.73760431 460.229172,6.42820323 L458.817896,3.96410162 C458.640691,3.65470054 458.640691,3.27350269 458.817896,2.96410162 L460.229172,0.5 C460.406377,0.190598923 460.733864,2.55795385e-13 461.088274,2.55795385e-13 L463.910826,2.55795385e-13 Z M336.934139,2.55795385e-13 C337.288548,2.55795385e-13 337.616036,0.190598923 337.793241,0.5 L339.204517,2.96410162 C339.381722,3.27350269 339.381722,3.65470054 339.204517,3.96410162 L337.793241,6.42820323 C337.616036,6.73760431 337.288548,6.92820323 336.934139,6.92820323 L334.111587,6.92820323 C333.757177,6.92820323 333.42969,6.73760431 333.252485,6.42820323 L331.841209,3.96410162 C331.664004,3.65470054 331.664004,3.27350269 331.841209,2.96410162 L333.252485,0.5 C333.42969,0.190598923 333.757177,2.55795385e-13 334.111587,2.55795385e-13 L336.934139,2.55795385e-13 Z M295.269914,2.84217094e-14 C295.624323,2.84217094e-14 295.951811,0.190598923 296.129016,0.5 L297.540292,2.96410162 C297.717496,3.27350269 297.717496,3.65470054 297.540292,3.96410162 L296.129016,6.42820323 C295.951811,6.73760431 295.624323,6.92820323 295.269914,6.92820323 L292.447361,6.92820323 C292.092952,6.92820323 291.765464,6.73760431 291.588259,6.42820323 L290.176983,3.96410162 C289.999779,3.65470054 289.999779,3.27350269 290.176983,2.96410162 L291.588259,0.5 C291.765464,0.190598923 292.092952,2.84217094e-14 292.447361,2.84217094e-14 L295.269914,2.84217094e-14 Z M263.912548,2.84217094e-14 C264.266957,2.84217094e-14 264.594445,0.190598923 264.77165,0.5 L266.182926,2.96410162 C266.36013,3.27350269 266.36013,3.65470054 266.182926,3.96410162 L264.77165,6.42820323 C264.594445,6.73760431 264.266957,6.92820323 263.912548,6.92820323 L261.089995,6.92820323 C260.735586,6.92820323 260.408098,6.73760431 260.230894,6.42820323 L258.819617,3.96410162 C258.642413,3.65470054 258.642413,3.27350269 258.819617,2.96410162 L260.230894,0.5 C260.408098,0.190598923 260.735586,2.84217094e-14 261.089995,2.84217094e-14 L263.912548,2.84217094e-14 Z M274.054446,2.84217094e-14 C274.408856,2.84217094e-14 274.736343,0.190598923 274.913548,0.5 L276.324824,2.96410162 C276.502029,3.27350269 276.502029,3.65470054 276.324824,3.96410162 L274.913548,6.42820323 C274.736343,6.73760431 274.408856,6.92820323 274.054446,6.92820323 L271.231894,6.92820323 C270.877485,6.92820323 270.549997,6.73760431 270.372792,6.42820323 L268.961516,3.96410162 C268.784311,3.65470054 268.784311,3.27350269 268.961516,2.96410162 L270.372792,0.5 C270.549997,0.190598923 270.877485,2.84217094e-14 271.231894,2.84217094e-14 L274.054446,2.84217094e-14 Z M284.308221,2.55795385e-13 C284.66263,2.55795385e-13 284.990118,0.190598923 285.167323,0.5 L286.578599,2.96410162 C286.755804,3.27350269 286.755804,3.65470054 286.578599,3.96410162 L285.167323,6.42820323 C284.990118,6.73760431 284.66263,6.92820323 284.308221,6.92820323 L281.485669,6.92820323 C281.131259,6.92820323 280.803772,6.73760431 280.626567,6.42820323 L279.215291,3.96410162 C279.038086,3.65470054 279.038086,3.27350269 279.215291,2.96410162 L280.626567,0.5 C280.803772,0.190598923 281.131259,2.55795385e-13 281.485669,2.55795385e-13 L284.308221,2.55795385e-13 Z M509.176066,15.2959151 C509.530475,15.2959151 509.857963,15.486514 510.035168,15.7959151 L511.446444,18.2600167 C511.623648,18.5694178 511.623648,18.9506156 511.446444,19.2600167 L510.035168,21.7241183 C509.857963,22.0335194 509.530475,22.2241183 509.176066,22.2241183 L506.353513,22.2241183 C505.999104,22.2241183 505.671616,22.0335194 505.494412,21.7241183 L504.083135,19.2600167 C503.905931,18.9506156 503.905931,18.5694178 504.083135,18.2600167 L505.494412,15.7959151 C505.671616,15.486514 505.999104,15.2959151 506.353513,15.2959151 L509.176066,15.2959151 Z M529.571739,15.2959151 C529.926149,15.2959151 530.253636,15.486514 530.430841,15.7959151 L531.842117,18.2600167 C532.019322,18.5694178 532.019322,18.9506156 531.842117,19.2600167 L530.430841,21.7241183 C530.253636,22.0335194 529.926149,22.2241183 529.571739,22.2241183 L526.749187,22.2241183 C526.394777,22.2241183 526.06729,22.0335194 525.890085,21.7241183 L524.478809,19.2600167 C524.301604,18.9506156 524.301604,18.5694178 524.478809,18.2600167 L525.890085,15.7959151 C526.06729,15.486514 526.394777,15.2959151 526.749187,15.2959151 L529.571739,15.2959151 Z M519.317964,15.2959151 C519.672374,15.2959151 519.999862,15.486514 520.177066,15.7959151 L521.588342,18.2600167 C521.765547,18.5694178 521.765547,18.9506156 521.588342,19.2600167 L520.177066,21.7241183 C519.999862,22.0335194 519.672374,22.2241183 519.317964,22.2241183 L516.495412,22.2241183 C516.141003,22.2241183 515.813515,22.0335194 515.63631,21.7241183 L514.225034,19.2600167 C514.047829,18.9506156 514.047829,18.5694178 514.225034,18.2600167 L515.63631,15.7959151 C515.813515,15.486514 516.141003,15.2959151 516.495412,15.2959151 L519.317964,15.2959151 Z M540.596762,15.2959151 C540.951171,15.2959151 541.278659,15.486514 541.455864,15.7959151 L542.86714,18.2600167 C543.044345,18.5694178 543.044345,18.9506156 542.86714,19.2600167 L541.455864,21.7241183 C541.278659,22.0335194 540.951171,22.2241183 540.596762,22.2241183 L537.77421,22.2241183 C537.4198,22.2241183 537.092313,22.0335194 536.915108,21.7241183 L535.503832,19.2600167 C535.326627,18.9506156 535.326627,18.5694178 535.503832,18.2600167 L536.915108,15.7959151 C537.092313,15.486514 537.4198,15.2959151 537.77421,15.2959151 L540.596762,15.2959151 Z M514.40252,7.63566104 C514.75693,7.63566104 515.084417,7.82625996 515.261622,8.13566104 L516.672898,10.5997627 C516.850103,10.9091637 516.850103,11.2903616 516.672898,11.5997627 L515.261622,14.0638643 C515.084417,14.3732653 514.75693,14.5638643 514.40252,14.5638643 L511.579968,14.5638643 C511.225559,14.5638643 510.898071,14.3732653 510.720866,14.0638643 L509.30959,11.5997627 C509.132385,11.2903616 509.132385,10.9091637 509.30959,10.5997627 L510.720866,8.13566104 C510.898071,7.82625996 511.225559,7.63566104 511.579968,7.63566104 L514.40252,7.63566104 Z M524.151321,7.63566104 C524.50573,7.63566104 524.833218,7.82625996 525.010423,8.13566104 L526.421699,10.5997627 C526.598904,10.9091637 526.598904,11.2903616 526.421699,11.5997627 L525.010423,14.0638643 C524.833218,14.3732653 524.50573,14.5638643 524.151321,14.5638643 L521.328769,14.5638643 C520.974359,14.5638643 520.646871,14.3732653 520.469667,14.0638643 L519.058391,11.5997627 C518.881186,11.2903616 518.881186,10.9091637 519.058391,10.5997627 L520.469667,8.13566104 C520.646871,7.82625996 520.974359,7.63566104 521.328769,7.63566104 L524.151321,7.63566104 Z M534.798194,7.63566104 C535.152603,7.63566104 535.480091,7.82625996 535.657295,8.13566104 L537.068572,10.5997627 C537.245776,10.9091637 537.245776,11.2903616 537.068572,11.5997627 L535.657295,14.0638643 C535.480091,14.3732653 535.152603,14.5638643 534.798194,14.5638643 L531.975641,14.5638643 C531.621232,14.5638643 531.293744,14.3732653 531.116539,14.0638643 L529.705263,11.5997627 C529.528059,11.2903616 529.528059,10.9091637 529.705263,10.5997627 L531.116539,8.13566104 C531.293744,7.82625996 531.621232,7.63566104 531.975641,7.63566104 L534.798194,7.63566104 Z M509.176066,0.712142944 C509.530475,0.712142944 509.857963,0.902741868 510.035168,1.21214294 L511.446444,3.67624456 C511.623648,3.98564564 511.623648,4.36684348 511.446444,4.67624456 L510.035168,7.14034617 C509.857963,7.44974725 509.530475,7.64034617 509.176066,7.64034617 L506.353513,7.64034617 C505.999104,7.64034617 505.671616,7.44974725 505.494412,7.14034617 L504.083135,4.67624456 C503.905931,4.36684348 503.905931,3.98564564 504.083135,3.67624456 L505.494412,1.21214294 C505.671616,0.902741868 505.999104,0.712142944 506.353513,0.712142944 L509.176066,0.712142944 Z M529.571739,0.712142944 C529.926149,0.712142944 530.253636,0.902741868 530.430841,1.21214294 L531.842117,3.67624456 C532.019322,3.98564564 532.019322,4.36684348 531.842117,4.67624456 L530.430841,7.14034617 C530.253636,7.44974725 529.926149,7.64034617 529.571739,7.64034617 L526.749187,7.64034617 C526.394777,7.64034617 526.06729,7.44974725 525.890085,7.14034617 L524.478809,4.67624456 C524.301604,4.36684348 524.301604,3.98564564 524.478809,3.67624456 L525.890085,1.21214294 C526.06729,0.902741868 526.394777,0.712142944 526.749187,0.712142944 L529.571739,0.712142944 Z M519.317964,0.712142944 C519.672374,0.712142944 519.999862,0.902741868 520.177066,1.21214294 L521.588342,3.67624456 C521.765547,3.98564564 521.765547,4.36684348 521.588342,4.67624456 L520.177066,7.14034617 C519.999862,7.44974725 519.672374,7.64034617 519.317964,7.64034617 L516.495412,7.64034617 C516.141003,7.64034617 515.813515,7.44974725 515.63631,7.14034617 L514.225034,4.67624456 C514.047829,4.36684348 514.047829,3.98564564 514.225034,3.67624456 L515.63631,1.21214294 C515.813515,0.902741868 516.141003,0.712142944 516.495412,0.712142944 L519.317964,0.712142944 Z M540.596762,0.712142944 C540.951171,0.712142944 541.278659,0.902741868 541.455864,1.21214294 L542.86714,3.67624456 C543.044345,3.98564564 543.044345,4.36684348 542.86714,4.67624456 L541.455864,7.14034617 C541.278659,7.44974725 540.951171,7.64034617 540.596762,7.64034617 L537.77421,7.64034617 C537.4198,7.64034617 537.092313,7.44974725 536.915108,7.14034617 L535.503832,4.67624456 C535.326627,4.36684348 535.326627,3.98564564 535.503832,3.67624456 L536.915108,1.21214294 C537.092313,0.902741868 537.4198,0.712142944 537.77421,0.712142944 L540.596762,0.712142944 Z" id="六边形" fill="url(#radialGradient-6)"></path>
            <polygon id="路径" fill="url(#radialGradient-7)" fill-rule="nonzero" points="245.847707 8.52651283e-14 253.75688 7.04979706 289.757902 7.04979706 297.866384 8.52651283e-14 544.000044 8.52651283e-14 544.000044 1.999 298.615044 2.999 290.505767 10.0497971 252.994912 10.0497971 245.086044 2.999 5.68434189e-14 1.982 4.35791015e-05 8.52651283e-14"></polygon>
            <g id="编组-12" transform="translate(245.889021, 0.000000)">
                <polygon id="矩形" fill="#04162F" points="1.623453e-14 -2.84217094e-14 50.9773418 -2.84217094e-14 44.1550592 6.92820323 7.37727507 6.92351809"></polygon>
                <polygon id="矩形备份-55" fill="#24FAE1" points="2.91231918 5.68434189e-14 49.3097267 5.68434189e-14 43.2509804 5.02489853 8.25098038 5.02489853"></polygon>
            </g>
            <circle id="椭圆形备份-2" fill="#011029" filter="url(#filter-8)" cx="272.000044" cy="179" r="113"></circle>
        </g>
    </g>
</svg>